<svg width="30" height="31" fill="none" xmlns="http://www.w3.org/2000/svg"><g clip-path="url(#clip0)"><path d="M15 .18c-8.271 0-15 6.729-15 15 0 8.27 6.729 15 15 15s15-6.73 15-15c0-8.271-6.729-15-15-15zm5.07 21.096c-.748.612-1.772 1.01-2.973 1.16v1.514a.274.274 0 01-.273.274h-1.186a.274.274 0 01-.273-.274v-1.446H13.95v1.446a.274.274 0 01-.273.274h-1.186a.274.274 0 01-.273-.274v-1.446h-2.135a.274.274 0 01-.274-.274V8.13c0-.152.123-.274.274-.274h2.135V6.608c0-.15.122-.273.273-.273h1.186c.15 0 .273.122.273.273v1.248h1.414V6.608c0-.15.122-.273.273-.273h1.186c.15 0 .273.122.273.273V7.94c2.377.37 3.84 1.965 3.84 4.209 0 .986-.28 1.866-.812 2.564.936.788 1.448 1.934 1.448 3.257 0 1.36-.52 2.503-1.503 3.306z" fill="url(#paint0_linear)"/><path d="M18.29 12.14c0-.407 0-1.648-2.335-1.648H12.45v3.111h4.652c.81-.164 1.187-.63 1.187-1.462z" fill="url(#paint1_linear)"/><path d="M17.176 16.264h-4.725v3.603h3.503c1.972 0 2.971-.635 2.971-1.889 0-.992-.572-1.553-1.749-1.714z" fill="url(#paint2_linear)"/></g><defs><linearGradient id="paint0_linear" x1="0" y1=".18" x2="33.449" y2="4.709" gradientUnits="userSpaceOnUse"><stop stop-color="#DB7515"/><stop offset="1" stop-color="#FCCD6D"/></linearGradient><linearGradient id="paint1_linear" x1="12.451" y1="10.492" x2="18.678" y2="12.075" gradientUnits="userSpaceOnUse"><stop stop-color="#DB7515"/><stop offset="1" stop-color="#FCCD6D"/></linearGradient><linearGradient id="paint2_linear" x1="12.451" y1="16.264" x2="19.391" y2="17.952" gradientUnits="userSpaceOnUse"><stop stop-color="#DB7515"/><stop offset="1" stop-color="#FCCD6D"/></linearGradient><clipPath id="clip0"><path fill="#fff" transform="translate(0 .18)" d="M0 0h30v30H0z"/></clipPath></defs></svg>