<svg width="512" height="512" fill="none" xmlns="http://www.w3.org/2000/svg"><path d="M256 512c-68.38 0-132.668-26.628-181.02-74.98C26.628 388.668 0 324.38 0 256c0-68.38 26.629-132.667 74.98-181.02C123.331 26.627 187.62 0 256 0c68.38 0 132.668 26.628 181.02 74.98C485.372 123.332 512 187.62 512 256c0 68.38-26.629 132.667-74.98 181.02C388.669 485.373 324.38 512 256 512zm0-480C132.486 32 32 132.486 32 256s100.486 224 224 224 224-100.486 224-224S379.514 32 256 32z" fill="#A8D061"/><path d="M314.264 256C327.578 244.263 336 227.101 336 208c0-26.804-16.571-49.798-40-59.313V128c0-8.836-7.163-16-16-16s-16 7.164-16 16v16h-32v-16c0-8.836-7.163-16-16-16s-16 7.164-16 16v16h-32c-8.837 0-16 7.164-16 16s7.163 16 16 16h16v160h-16c-8.837 0-16 7.164-16 16s7.163 16 16 16h32v16c0 8.836 7.163 16 16 16s16-7.164 16-16v-16h32v16c0 8.836 7.163 16 16 16s16-7.164 16-16v-20.687c23.429-9.515 40-32.509 40-59.313 0-19.101-8.422-36.263-21.736-48zM216 176h56c17.645 0 32 14.355 32 32s-14.355 32-32 32h-56v-64zm56 160h-56v-64h56c17.645 0 32 14.355 32 32s-14.355 32-32 32z" fill="#A8D061"/></svg>