<svg xmlns="http://www.w3.org/2000/svg" viewBox="0 0 512 512"><path d="M511.956 187.768l-.138-6.833-6.81-.589c-17.284-1.493-31.414-14.474-34.362-31.567l-1.431-8.294-8.108 2.262a48.288 48.288 0 01-12.981 1.784c-26.57 0-48.186-21.617-48.186-48.186 0-3.192.318-6.398.946-9.529l1.462-7.295-7.261-1.621c-17.325-3.867-29.899-19.573-29.899-37.345 0-3.255.41-6.49 1.217-9.613l2.2-8.509-8.737-.953a173.573 173.573 0 00-18.726-1.025c-79.931 0-147.209 55.176-165.769 129.439-1.502-.039-3.006-.06-4.517-.06C76.646 149.832 0 226.478 0 320.689c0 94.21 76.646 170.857 170.857 170.857 79.932 0 147.209-55.176 165.769-129.439 1.501.04 3.006.06 4.517.06C435.354 362.167 512 285.521 512 191.31c0-1.184-.02-2.363-.044-3.542zm-341.099 288.57c-85.825 0-155.649-69.824-155.649-155.649S85.032 165.04 170.857 165.04s155.649 69.824 155.649 155.649-69.824 155.649-155.649 155.649zm170.286-129.379c-.484 0-.963-.014-1.446-.018a171.521 171.521 0 002.017-26.252c0-87.466-66.067-159.779-150.916-169.687 17.804-66.347 78.457-115.341 150.345-115.341 2.99 0 6.01.088 9.038.265a53.704 53.704 0 00-.199 4.629c0 22.446 14.359 42.534 35 50.181a63.724 63.724 0 00-.248 5.609c0 34.956 28.438 63.394 63.394 63.394 3.16 0 6.317-.238 9.445-.71 5.883 17.834 20.808 31.347 39.189 35.407-1.668 84.392-70.836 152.523-155.619 152.523z"/><path d="M320.499 77.035c-12.661 0-22.963 10.301-22.963 22.963s10.301 22.963 22.963 22.963 22.963-10.301 22.963-22.963-10.302-22.963-22.963-22.963zm0 30.718c-4.275 0-7.755-3.479-7.755-7.755s3.479-7.755 7.755-7.755 7.755 3.479 7.755 7.755-3.48 7.755-7.755 7.755zm-90.639.533a143.68 143.68 0 00-7.486 11.002l12.957 7.961a128.517 128.517 0 016.69-9.831l-12.161-9.132zm62.128-47.298c-20.078 7.867-38.433 20.459-53.084 36.415l11.202 10.286c13.095-14.261 29.495-25.514 47.429-32.541l-5.547-14.16zM457.45 236.224a127.302 127.302 0 01-15.705 27.97l12.219 9.055a142.512 142.512 0 0017.58-31.313l-14.094-5.712zm-69.343 9.665c-12.662 0-22.963 10.301-22.963 22.963s10.301 22.963 22.963 22.963 22.963-10.302 22.963-22.963c0-12.662-10.301-22.963-22.963-22.963zm0 30.718c-4.276 0-7.755-3.48-7.755-7.755 0-4.276 3.479-7.755 7.755-7.755s7.755 3.479 7.755 7.755c0 4.277-3.478 7.755-7.755 7.755zm-46.964-129.269c-12.662 0-22.963 10.302-22.963 22.963 0 12.662 10.301 22.963 22.963 22.963s22.963-10.301 22.963-22.963c0-12.661-10.301-22.963-22.963-22.963zm0 30.719c-4.276 0-7.755-3.479-7.755-7.755s3.479-7.755 7.755-7.755 7.755 3.48 7.755 7.755-3.478 7.755-7.755 7.755zm84.532 1.244c-15.694 0-28.461 12.768-28.461 28.462 0 15.694 12.768 28.462 28.461 28.462 15.695 0 28.462-12.769 28.462-28.462 0-15.694-12.768-28.462-28.462-28.462zm0 41.716c-7.308 0-13.253-5.945-13.253-13.254 0-7.308 5.945-13.254 13.253-13.254s13.254 5.945 13.254 13.254c0 7.308-5.945 13.254-13.254 13.254zM180.878 186.28c-12.662 0-22.963 10.302-22.963 22.963 0 12.661 10.301 22.963 22.963 22.963s22.963-10.301 22.963-22.963-10.301-22.963-22.963-22.963zm0 30.718c-4.276 0-7.755-3.479-7.755-7.755s3.479-7.755 7.755-7.755 7.755 3.48 7.755 7.755-3.479 7.755-7.755 7.755zM56.709 237.037a143.428 143.428 0 00-7.486 11.002l12.958 7.96a128.056 128.056 0 016.689-9.831l-12.161-9.131zm62.129-47.298c-20.076 7.866-38.432 20.458-53.084 36.416l11.202 10.286c13.095-14.262 29.496-25.515 47.429-32.541l-5.547-14.161zm168.868 177.022a127.369 127.369 0 01-15.705 27.969l12.219 9.055a142.481 142.481 0 0017.58-31.313l-14.094-5.711zM63.394 380.006l-13.31 7.358a143.046 143.046 0 0025.036 32.919l10.65-10.856a127.87 127.87 0 01-22.376-29.421zm-10.828-25.998l-14.657 4.055a142.305 142.305 0 005.567 16.228l14.059-5.797a126.945 126.945 0 01-4.969-14.486zm165.255 21.26c-12.662 0-22.963 10.302-22.963 22.963s10.302 22.963 22.963 22.963c12.662 0 22.963-10.301 22.963-22.963s-10.302-22.963-22.963-22.963zm0 30.718c-4.276 0-7.755-3.479-7.755-7.755s3.48-7.755 7.755-7.755c4.276 0 7.755 3.48 7.755 7.755 0 4.276-3.48 7.755-7.755 7.755zM65.867 282.367c-12.662 0-22.963 10.301-22.963 22.963s10.302 22.963 22.963 22.963c12.661 0 22.963-10.302 22.963-22.963-.001-12.662-10.301-22.963-22.963-22.963zm0 30.718c-4.276 0-7.755-3.48-7.755-7.755 0-4.276 3.48-7.755 7.755-7.755 4.276 0 7.755 3.479 7.755 7.755s-3.479 7.755-7.755 7.755zm104.99-36.368c-12.662 0-22.963 10.302-22.963 22.963s10.302 22.963 22.963 22.963c12.662 0 22.963-10.301 22.963-22.963s-10.301-22.963-22.963-22.963zm0 30.718c-4.276 0-7.755-3.479-7.755-7.755s3.48-7.755 7.755-7.755c4.276 0 7.755 3.48 7.755 7.755s-3.479 7.755-7.755 7.755zm105.389-19.613c-15.694.001-28.461 12.769-28.461 28.462 0 15.694 12.768 28.461 28.461 28.461 15.694 0 28.462-12.768 28.462-28.461 0-15.694-12.768-28.462-28.462-28.462zm0 41.715c-7.308 0-13.253-5.945-13.253-13.253s5.945-13.254 13.253-13.254c7.309.001 13.254 5.946 13.254 13.254s-5.945 13.253-13.254 13.253zm-146.892 67.58c-15.694 0-28.461 12.768-28.461 28.462 0 15.694 12.768 28.461 28.461 28.461 15.694 0 28.462-12.768 28.462-28.461.001-15.695-12.768-28.462-28.462-28.462zm0 41.714c-7.308 0-13.253-5.945-13.253-13.253 0-7.309 5.945-13.254 13.253-13.254 7.309 0 13.254 5.945 13.254 13.254.001 7.308-5.946 13.253-13.254 13.253z"/></svg>