<svg width="30" height="31" fill="none" xmlns="http://www.w3.org/2000/svg"><g clip-path="url(#clip0)"><path d="M15 .18c-8.271 0-15 6.729-15 15 0 8.27 6.729 15 15 15s15-6.73 15-15c0-8.271-6.729-15-15-15zm0 28.636c-7.52 0-13.636-6.117-13.636-13.636C1.364 7.66 7.48 1.543 15 1.543S28.636 7.661 28.636 15.18 22.52 28.816 15 28.816z" fill="url(#paint0_linear)"/><path d="M15 2.838c-6.805 0-12.34 5.536-12.34 12.34C2.66 21.985 8.194 27.52 15 27.52s12.341-5.536 12.341-12.341-5.536-12.341-12.34-12.341zm0 24.273c-6.58 0-11.932-5.353-11.932-11.932C3.068 8.599 8.421 3.247 15 3.247c6.58 0 11.932 5.353 11.932 11.932 0 6.58-5.353 11.932-11.932 11.932z" fill="url(#paint1_linear)"/><path d="M13.553 15.47h2.314l.581-.581h-2.314l-.581.58z" fill="url(#paint2_linear)"/><path d="M15 21.18c-.044 0-.089 0-.134-.003-.785-.04-1.425-.51-1.713-1.257-.233-.606-.236-1.5.456-2.191l.64-.64h-2.227a3.643 3.643 0 00-.396 3.419c.52 1.348 1.73 2.231 3.157 2.303a4.232 4.232 0 004.445-4.222H17.59A2.594 2.594 0 0115 21.181z" fill="url(#paint3_linear)"/><path d="M15 9.18c.044 0 .089 0 .134.003.785.04 1.425.51 1.713 1.257.233.606.235 1.5-.456 2.191l-.64.64h2.227a3.644 3.644 0 00.396-3.418c-.52-1.35-1.73-2.232-3.157-2.304a4.232 4.232 0 00-4.445 4.222h1.637a2.594 2.594 0 012.59-2.592z" fill="url(#paint4_linear)"/><path d="M18.886 15.742h-7.773v1.073h7.773v-1.073z" fill="url(#paint5_linear)"/><path d="M18.886 13.543h-7.773v1.073h7.773v-1.073z" fill="url(#paint6_linear)"/></g><defs><linearGradient id="paint0_linear" x1="0" y1=".18" x2="33.449" y2="4.709" gradientUnits="userSpaceOnUse"><stop stop-color="#A8D061"/><stop offset="1" stop-color="#A8D061"/></linearGradient><linearGradient id="paint1_linear" x1="2.659" y1="2.838" x2="30.178" y2="6.564" gradientUnits="userSpaceOnUse"><stop stop-color="#A8D061"/><stop offset="1" stop-color="#A8D061"/></linearGradient><linearGradient id="paint2_linear" x1="13.553" y1="14.889" x2="15.812" y2="16.413" gradientUnits="userSpaceOnUse"><stop stop-color="#A8D061"/><stop offset="1" stop-color="#A8D061"/></linearGradient><linearGradient id="paint3_linear" x1="11.372" y1="17.09" x2="19.994" y2="18.691" gradientUnits="userSpaceOnUse"><stop stop-color="#A8D061"/><stop offset="1" stop-color="#A8D061"/></linearGradient><linearGradient id="paint4_linear" x1="10.773" y1="7.543" x2="19.394" y2="9.144" gradientUnits="userSpaceOnUse"><stop stop-color="#A8D061"/><stop offset="1" stop-color="#A8D061"/></linearGradient><linearGradient id="paint5_linear" x1="11.113" y1="15.742" x2="15.611" y2="20.154" gradientUnits="userSpaceOnUse"><stop stop-color="#A8D061"/><stop offset="1" stop-color="#A8D061"/></linearGradient><linearGradient id="paint6_linear" x1="11.113" y1="13.543" x2="15.611" y2="17.955" gradientUnits="userSpaceOnUse"><stop stop-color="#A8D061"/><stop offset="1" stop-color="#A8D061"/></linearGradient><clipPath id="clip0"><path fill="#fff" transform="translate(0 .18)" d="M0 0h30v30H0z"/></clipPath></defs></svg>