<svg height="512" viewBox="0 0 60 60" width="512" xmlns="http://www.w3.org/2000/svg"><path d="M52 36h1a1 1 0 000-2h-4v-2a1 1 0 00-2 0v2h-4a1 1 0 000 2h7v2a5 5 0 01-2 4 5 5 0 01-1.7-2.31 1 1 0 00-1.88.68A6.86 6.86 0 0046 42.9a15 15 0 01-3 .1 1 1 0 000 2c2.09 0 3.29.13 5-.69 1.73.82 2.89.69 5 .69a1 1 0 000-2c-1 .078-2.007.04-3-.11 2.26-2.31 2-4.72 2-6.89zM1 60h34a1 1 0 001-1v-.8a6.9 6.9 0 00-3.56-6.05l-6.81-4.26A3.16 3.16 0 0124 45.16V42a14.39 14.39 0 003.82-6.48A2.62 2.62 0 0029 33.36v-3.45A2.68 2.68 0 0028 28v-5.07c0-.33-.7-7.93-10-7.93S8 22.67 8 23.06V28a2.68 2.68 0 00-1 1.92v3.45c.005.88.452 1.7 1.19 2.18A14.15 14.15 0 0012 42v3.16A3.21 3.21 0 0110.26 48l-6.6 4.14A7 7 0 000 58.2v.8a1 1 0 001 1zm3.67-6.18l6.6-4.15A5.15 5.15 0 0014 45.16V42a2 2 0 00-.64-1.47 12.21 12.21 0 01-3.22-5.44C9.87 33.9 9 34 9 33.36v-3.43a1.18 1.18 0 01.34-.45A2 2 0 0010 28v-4.87c0-.63.61-6.13 8-6.13s8 5.45 8 6v5c0 1.23.89 1.51 1 1.91v3.45a.59.59 0 01-.28.5 2 2 0 00-.86 1.23 12.21 12.21 0 01-3.22 5.44A2 2 0 0022 42v3.16a5.07 5.07 0 002.62 4.45l6.81 4.27A4.94 4.94 0 0134 58H2a5 5 0 012.67-4.18z"/><path d="M55 27H41a5 5 0 00-5 5v1.46l-5.55 3.71a1 1 0 000 1.66L36 42.54V44a5 5 0 005 5h14a5 5 0 005-5V32a5 5 0 00-5-5zm3 17a3 3 0 01-3 3H41a3 3 0 01-3-3v-2a1 1 0 00-.45-.83L32.8 38l4.75-3.17A1 1 0 0038 34v-2a3 3 0 013-3h14a3 3 0 013 3zM55 0H41a5 5 0 00-5 5v1.46l-5.55 3.71a1 1 0 000 1.66L36 15.54V17a5 5 0 005 5h14a5 5 0 005-5V5a5 5 0 00-5-5zm3 17a3 3 0 01-3 3H41a3 3 0 01-3-3v-2a1 1 0 00-.45-.83L32.8 11l4.75-3.17A1 1 0 0038 7V5a3 3 0 013-3h14a3 3 0 013 3z"/><path d="M48 4a6 6 0 00-6 6v7a1 1 0 002 0v-4h8v4a1 1 0 002 0v-7a6 6 0 00-6-6zm-4 7v-1a4 4 0 118 0v1z"/></svg>