<svg height="512" viewBox="0 0 511.998 511.998" width="512" xmlns="http://www.w3.org/2000/svg"><path d="M333.66 31.058H208.408C204.906 13.375 189.275 0 170.579 0s-34.326 13.375-37.829 31.058H7.5a7.5 7.5 0 00-7.5 7.5v465.94a7.5 7.5 0 007.5 7.5h326.16c4.143 0 7.5-3.357 7.5-7.5v-357.35c0-4.143-3.357-7.5-7.5-7.5s-7.5 3.357-7.5 7.5v349.85H15V46.058h62.658a69.884 69.884 0 001.04 16.07H38.56a7.5 7.5 0 00-7.5 7.5v293.79c0 4.143 3.358 7.5 7.5 7.5s7.5-3.357 7.5-7.5V77.128h39.734c7.225 9.43 18.593 15.527 31.364 15.527H224c12.771 0 24.139-6.097 31.364-15.527h39.726v388.811H46.06v-69.83c0-4.143-3.358-7.5-7.5-7.5s-7.5 3.357-7.5 7.5v77.33a7.5 7.5 0 007.5 7.5h264.03c4.143 0 7.5-3.357 7.5-7.5V69.628c0-4.143-3.357-7.5-7.5-7.5h-40.13a69.888 69.888 0 001.04-16.07h62.66v68.41c0 4.143 3.357 7.5 7.5 7.5s7.5-3.357 7.5-7.5v-75.91c0-4.143-3.357-7.5-7.5-7.5zM224 77.655H117.158c-17.38 0-25.087-17.156-24.5-31.593h46.859c4.051 0 7.517-3.707 7.501-7.548C147.044 25.544 157.603 15 170.579 15c12.987 0 23.553 10.562 23.562 23.546 0 3.647 2.832 7.516 7.5 7.516H248.5c.587 14.437-7.12 31.593-24.5 31.593z"/><path d="M240.469 139.249c4.142 0 7.5-3.357 7.5-7.5s-3.358-7.5-7.5-7.5h-139.78c-4.142 0-7.5 3.357-7.5 7.5s3.358 7.5 7.5 7.5zM62.126 193.874a7.5 7.5 0 007.5 7.5h201.905c4.143 0 7.5-3.357 7.5-7.5s-3.357-7.5-7.5-7.5H69.626a7.5 7.5 0 00-7.5 7.5zm7.5 38.562h201.905c4.143 0 7.5-3.357 7.5-7.5s-3.357-7.5-7.5-7.5H69.626c-4.142 0-7.5 3.357-7.5 7.5s3.358 7.5 7.5 7.5zm0 31.062h201.905c4.143 0 7.5-3.357 7.5-7.5s-3.357-7.5-7.5-7.5H69.626c-4.142 0-7.5 3.357-7.5 7.5s3.358 7.5 7.5 7.5zm0 31.063h201.905c4.143 0 7.5-3.357 7.5-7.5s-3.357-7.5-7.5-7.5H69.626c-4.142 0-7.5 3.357-7.5 7.5s3.358 7.5 7.5 7.5zm0 31.061h201.905c4.143 0 7.5-3.357 7.5-7.5s-3.357-7.5-7.5-7.5H69.626c-4.142 0-7.5 3.357-7.5 7.5s3.358 7.5 7.5 7.5zm201.905 47.125h-77.656c-4.142 0-7.5 3.357-7.5 7.5s3.358 7.5 7.5 7.5h77.656c4.143 0 7.5-3.357 7.5-7.5s-3.357-7.5-7.5-7.5zm-177.858 7.016c0 20.996 17.082 38.078 38.078 38.078s38.078-17.082 38.078-38.078-17.082-38.078-38.078-38.078-38.078 17.082-38.078 38.078zm61.156 0c0 12.726-10.353 23.078-23.078 23.078s-23.078-10.353-23.078-23.078 10.353-23.078 23.078-23.078 23.078 10.352 23.078 23.078zm356.356 90.76l-15.531-30.578a7.498 7.498 0 00-6.687-4.104h-22.984l5.957-57.8c25.974-21.567 18.803-64.276-10.06-77.685-3.755-1.747-8.216-.113-9.962 3.642a7.5 7.5 0 003.642 9.962c19.566 9.09 24.38 38.047 6.699 52.611h-39.77c-17.689-14.559-12.856-43.525 6.701-52.611a7.5 7.5 0 10-6.32-13.604c-28.855 13.405-36.045 56.125-10.06 77.687l5.957 57.798H395.78a7.5 7.5 0 00-6.687 4.104l-15.531 30.578a7.495 7.495 0 00-.813 3.396v30.578c0 4.143 3.357 7.5 7.5 7.5h124.249c4.143 0 7.5-3.357 7.5-7.5V473.92a7.496 7.496 0 00-.813-3.397zm-82.931-88.951h28.242l-5.593 54.267h-17.057zm-27.871 69.27h83.981l8.158 16.063H392.224zm-12.634 46.156v-15.094h109.249v15.094z"/></svg>