<svg height="512" viewBox="0 0 128 128" width="512" xmlns="http://www.w3.org/2000/svg" data-name="Layer 1"><path fill="#fff" d="M54.577 68.561l.016-.02 35.456-35.455a1.75 1.75 0 00-.167-2.622A41.969 41.969 0 0064 21.63 42.418 42.418 0 0021.63 64a41.96 41.96 0 008.834 25.881 1.752 1.752 0 001.273.677h.112a1.749 1.749 0 001.237-.513l21.475-21.471zm-5.271.318L35.434 54.75l19.841-19.481 13.694 13.947-1.58 1.58-8.35-8.5a1.749 1.749 0 00-1.233-.524 1.68 1.68 0 00-1.243.5 1.915 1.915 0 01-2.705-.025 1.748 1.748 0 00-1.232-.524 1.856 1.856 0 00-1.242.5l-8.927 8.764a1.75 1.75 0 00-.023 2.475 1.913 1.913 0 01-.025 2.706 1.751 1.751 0 00-.022 2.475l8.5 8.657zm-3.4-11.646a5.442 5.442 0 00.043-4.774l6.84-6.715a5.375 5.375 0 002.382.573 5.592 5.592 0 002.391-.529l7.349 7.483-11.55 11.553zm-13.856 28.9A38.452 38.452 0 0125.13 64 38.914 38.914 0 0164 25.13a38.459 38.459 0 0122.133 6.923L71.444 46.741l-14.9-15.173a1.75 1.75 0 00-2.475-.022L31.733 53.479a1.75 1.75 0 00-.023 2.475l15.121 15.4zm65.486-48.014a1.748 1.748 0 00-2.622-.167L77.489 55.376l-.01.009-.011.013-4.03 4.029-.015.012-.015.019-35.457 35.456a1.75 1.75 0 00.167 2.622A41.969 41.969 0 0064 106.37 42.418 42.418 0 00106.37 64a41.96 41.96 0 00-8.834-25.881zM60.611 77.2l8.35 8.5a1.75 1.75 0 001.233.524h.016a1.75 1.75 0 001.227-.5 1.936 1.936 0 011.357-.548 1.9 1.9 0 011.348.573 1.748 1.748 0 001.232.524h.017a1.745 1.745 0 001.225-.5l8.927-8.764a1.75 1.75 0 00.023-2.475 1.913 1.913 0 01.025-2.706 1.751 1.751 0 00.022-2.475l-8.5-8.657 1.58-1.58L92.566 73.25 72.725 92.731 59.031 78.783zm14.028-14.024l7.452 7.591a5.442 5.442 0 00-.043 4.774l-6.84 6.715a5.372 5.372 0 00-2.382-.573 5.129 5.129 0 00-2.392.529l-7.348-7.484zM64 102.87a38.457 38.457 0 01-22.133-6.923l14.689-14.688 14.9 15.173a1.755 1.755 0 001.234.524h.01a1.748 1.748 0 001.226-.5l22.341-21.935a1.75 1.75 0 00.023-2.475l-15.121-15.4 14.778-14.778A38.452 38.452 0 01102.87 64 38.914 38.914 0 0164 102.87z"/><path fill="#fff" d="M64 11.25A52.75 52.75 0 10116.75 64 52.81 52.81 0 0064 11.25zm0 102A49.25 49.25 0 11113.25 64 49.306 49.306 0 0164 113.25z"/></svg>