<svg height="512" viewBox="0 0 64 64" width="512" xmlns="http://www.w3.org/2000/svg"><path d="M61 5h-6.697l-1.149-.767A19.2 19.2 0 0042.473 1H35c-1.103 0-2 .897-2 2 0 .732.212 1.41.556 2.001L28 5c-1.654 0-3 1.346-3 3 0 .395.081.77.22 1.116a2.982 2.982 0 00-1.429.871L22.78 8.976l-1.457 1.456c-.551.552-1.376.712-2.141.392A1.908 1.908 0 0118 9.055V7h-6v2.055c0 .778-.464 1.473-1.223 1.785a1.91 1.91 0 01-2.102-.408L7.22 8.976 2.976 13.22l1.455 1.456c.551.552.712 1.377.393 2.141A1.909 1.909 0 013.055 18H1v6h2.055c.778 0 1.473.465 1.786 1.222a1.919 1.919 0 01-.409 2.103L2.976 28.78l4.244 4.244 1.457-1.456c.551-.552 1.375-.712 2.14-.394A1.914 1.914 0 0112 32.945V35h1v2.026c0 1.914.213 3.821.609 5.685-.954.431-1.88.934-2.762 1.522L9.697 45H3c-1.103 0-2 .897-2 2v12c0 1.103.897 2 2 2h6a2 2 0 001.819-1.178A19.331 19.331 0 0021.403 63H30c.412 0 .805-.084 1.163-.235.173.061.345.125.52.183l.317.106.317-.105a27.266 27.266 0 0011.904-7.917c.195.02.393.06.596.144A1.909 1.909 0 0146 56.945V59h6v-2.055c0-.778.465-1.473 1.222-1.786a1.917 1.917 0 012.102.409l1.456 1.456 4.244-4.244-1.455-1.456c-.551-.552-.712-1.377-.393-2.141A1.909 1.909 0 0160.945 48H63v-6h-2.055c-.778 0-1.473-.465-1.786-1.222a1.919 1.919 0 01.409-2.103l1.455-1.456-4.244-4.244-1.457 1.456c-.551.552-1.375.712-2.141.392A1.906 1.906 0 0152 33.055V31h-1v-9.941c.753-.366 1.481-.78 2.18-1.24A2 2 0 0055 21h6c1.103 0 2-.897 2-2V7c0-1.103-.897-2-2-2zM28 7l9 .001V7h3.17c.603 0 1.148.279 1.521.743A7.721 7.721 0 0040.535 9H28a1.001 1.001 0 010-2zm6.166 9.242L32.303 15H39v2h-3.564a15.696 15.696 0 01-1.27-.758zM28.564 17H28a1.001 1.001 0 010-2h3.697l-1.862 1.242c-.412.275-.838.524-1.271.758zM26 11h13.465a7.743 7.743 0 00-.426 2H26a1.001 1.001 0 010-2zM11.548 29.313a3.911 3.911 0 00-4.287.841l-.041.042-1.416-1.416.042-.042c1.126-1.127 1.456-2.81.827-4.318A3.902 3.902 0 003.055 22H3v-2h.055c1.591 0 3.011-.95 3.631-2.452a3.912 3.912 0 00-.84-4.286l-.042-.042 1.416-1.416.042.042c1.128 1.129 2.811 1.457 4.318.827A3.902 3.902 0 0014 9.055V9h2v.055c0 1.591.95 3.012 2.451 3.631a3.907 3.907 0 004.287-.84l.042-.042.222.223a2.995 2.995 0 002.218 2.858c-.139.345-.22.72-.22 1.115 0 .838.347 1.595.903 2.14a16.546 16.546 0 01-4.215.808A6.973 6.973 0 0015 14c-3.86 0-7 3.141-7 7a6.973 6.973 0 005 6.704v2.632a4.016 4.016 0 00-1.452-1.023zM13 17.78v7.786a4.972 4.972 0 01-3-4.567c0-2.757 2.243-5 5-5a4.969 4.969 0 014.538 2.94 16.272 16.272 0 01-2.034-.258zM9 59H3V47h6zm21 2h-8.597A17.31 17.31 0 0111 57.494V46.535l.956-.638A17.203 17.203 0 0121.527 43H27a2 2 0 01-1.996 2h-3.01v2H34a1.001 1.001 0 010 2H22v2h14a1.001 1.001 0 010 2H22v2h12a1.001 1.001 0 010 2H22v2h8a1.001 1.001 0 010 2zM19 37.026V24.934a22.68 22.68 0 001.725.066c3.803 0 7.248-.779 10.275-2.304V45h-2.556A3.959 3.959 0 0029 43c0-1.103-.897-2-2-2h-5.473c-.714 0-1.421.052-2.124.13A21.45 21.45 0 0119 37.026zm19.987 14.843a2.992 2.992 0 00-2.207-2.753c.139-.346.22-.721.22-1.116 0-1.654-1.346-3-3-3h-1V22.696C36.027 24.222 39.472 25 43.275 25c.572 0 1.149-.022 1.725-.066v12.093a21.26 21.26 0 01-6.013 14.842zm-6.045 8.705A3.02 3.02 0 0033 60c0-.352-.072-.686-.184-1H34a2.995 2.995 0 002.982-2.825A23.238 23.238 0 0047 37.026V22.69l-1.126.144c-.863.11-1.738.166-2.599.166-4.079 0-7.695-.959-10.749-2.851L32 19.823l-.526.326C28.42 22.041 24.804 23 20.725 23a20.65 20.65 0 01-2.599-.166L17 22.69v14.336c0 1.485.148 2.965.426 4.417-.653.142-1.295.325-1.93.535A25.443 25.443 0 0115 37.026V20.22l2.113.423c1.187.237 2.403.357 3.612.357 3.648 0 7.182-1.069 10.219-3.094L32 17.202l1.056.704A18.36 18.36 0 0043.275 21c1.209 0 2.425-.12 3.613-.357L49 20.22v16.807a25.274 25.274 0 01-16.058 23.547zM50.779 40.34C52.668 41.069 54 42.913 54 45c0 2.757-2.243 5-5 5-.412 0-.813-.052-1.204-.149a27.262 27.262 0 002.983-9.511zm1.672-3.654a3.907 3.907 0 004.287-.84l.042-.042 1.416 1.416-.042.042c-1.126 1.127-1.456 2.81-.827 4.318A3.902 3.902 0 0060.945 44H61v2h-.055c-1.591 0-3.011.95-3.631 2.452a3.912 3.912 0 00.84 4.286l.042.042-1.416 1.416-.042-.042c-1.128-1.128-2.811-1.459-4.319-.827A3.903 3.903 0 0050 56.945V57h-2v-.055c0-1.574-.931-2.977-2.407-3.609.412-.554.802-1.123 1.172-1.707A6.925 6.925 0 0049 52c3.86 0 7-3.141 7-7 0-3.118-2.118-5.857-5.05-6.716.019-.419.05-.835.05-1.258v-1.363c.39.434.88.787 1.451 1.023zm-5.955-18.004c-1.82.363-3.679.39-5.496.134v-5.191c0-1.624.684-3.145 1.854-4.228A5.187 5.187 0 0046.613 11H47V9h-.387a3.212 3.212 0 01-2.892-1.802A3.947 3.947 0 0040.17 5h-3.174A2 2 0 0135 3h7.473c3.418 0 6.728 1.002 9.571 2.897l.956.638V17.5c-.636.481-1.304.917-2 1.306V17.78zM61 19h-6V7h6z"/><path d="M47.825 13.264a6.729 6.729 0 00-4.774 4.42l1.897.633a4.738 4.738 0 013.362-3.113l.932-.233-.485-1.939zM1 39h2v2H1zm4 0h2v2H5zm4 0h2v2H9zm44-14h2v2h-2zm4 0h2v2h-2zm4 0h2v2h-2z"/></svg>