<svg width="30" height="31" fill="none" xmlns="http://www.w3.org/2000/svg"><g clip-path="url(#clip0)"><path d="M16.883 7.71h-4.707a.879.879 0 00-.88.88v6.652h-1.003a.879.879 0 100 1.758h1.004v2.008h-1.004a.879.879 0 100 1.758h1.004v1.945a.879.879 0 001.758 0v-1.945h3.828a.879.879 0 000-1.758h-3.828V17h3.828a4.65 4.65 0 004.644-4.645c0-2.624-2.137-4.644-4.644-4.644zm0 7.532h-3.828V9.47h3.828a2.884 2.884 0 012.887 2.886 2.89 2.89 0 01-2.887 2.887z" fill="url(#paint0_linear)"/><path d="M15 .18c-8.271 0-15 6.729-15 15 0 8.27 6.729 15 15 15s15-6.73 15-15c0-8.271-6.729-15-15-15zm0 28.242c-7.302 0-13.242-5.94-13.242-13.242C1.758 7.878 7.698 1.938 15 1.938c7.302 0 13.242 5.94 13.242 13.242 0 7.302-5.94 13.242-13.242 13.242z" fill="url(#paint1_linear)"/></g><defs><linearGradient id="paint0_linear" x1="9.414" y1="7.711" x2="23.022" y2="9.117" gradientUnits="userSpaceOnUse"><stop stop-color="#DB7515"/><stop offset="1" stop-color="#FCCD6D"/></linearGradient><linearGradient id="paint1_linear" x1="0" y1=".18" x2="33.449" y2="4.709" gradientUnits="userSpaceOnUse"><stop stop-color="#DB7515"/><stop offset="1" stop-color="#FCCD6D"/></linearGradient><clipPath id="clip0"><path fill="#fff" transform="translate(0 .18)" d="M0 0h30v30H0z"/></clipPath></defs></svg>