<svg viewBox="0 0 512 512" xmlns="http://www.w3.org/2000/svg"><path d="M255.3 256.7L0 0v512h60l15-15 15 15h30l15-15 15 15h30l15-15 15 15h30l15-15 15 15h30l15-15 15 15h30l15-15 15 15h122zM90 422V218.3l101.7 102L293.101 422zm0 0" fill="#ffd400"/><path d="M512 512H390l-15-15-15 15h-30l-15-15-15 15h-30l-15-15-15 15h-30l-15-15-15 15h-30l-15-15-15 15H90l-15-15-15 15H0l90-90h203.102L191.699 320.3 255 257l.3-.3zm0 0" fill="#fdbf00"/><path d="M60 482h30v30H60zm60 0h30v30h-30zm60 0h30v30h-30zm60 0h30v30h-30zm60 0h30v30h-30zm60 0h30v30h-30zm0 0" fill="#ff9f00"/></svg>