<svg width="19" height="21" fill="none" xmlns="http://www.w3.org/2000/svg"><g clip-path="url(#clip0)"><path d="M18.63 7.708c-.117-.407-.434-.696-.81-.735l-5.11-.526-2.02-5.367c-.15-.394-.49-.648-.867-.648s-.716.254-.865.649l-2.02 5.366-5.11.526c-.376.04-.693.328-.81.735-.117.407-.009.853.275 1.134l3.862 3.845-1.139 5.693c-.083.419.06.852.366 1.103a.866.866 0 00.551.203.855.855 0 00.483-.152l4.407-2.99 4.406 2.99c.322.22.729.2 1.034-.051.306-.252.45-.685.366-1.103l-1.139-5.693 3.862-3.844c.284-.282.393-.728.276-1.135z" fill="url(#paint0_linear)"/></g><defs><linearGradient id="paint0_linear" x1="4.149" y1="-2.449" x2="18.733" y2="-2.576" gradientUnits="userSpaceOnUse"><stop stop-color="#DE7B1B"/><stop offset=".278" stop-color="#EA9D3D"/><stop offset=".5" stop-color="#D1D1D1"/><stop offset="1" stop-color="#8C8C8C"/></linearGradient><clipPath id="clip0"><path fill="#fff" transform="translate(.973)" d="M0 0h17.703v20.092H0z"/></clipPath></defs></svg>