<svg width="18" height="21" fill="none" xmlns="http://www.w3.org/2000/svg"><g clip-path="url(#clip0)"><path d="M17.657 7.708c-.116-.407-.434-.696-.81-.735l-5.11-.526-2.02-5.367C9.567.686 9.228.432 8.85.432c-.376 0-.716.254-.865.649l-2.02 5.366-5.11.526c-.376.04-.693.328-.81.735-.116.407-.009.853.275 1.134l3.863 3.845-1.14 5.693c-.083.419.06.852.367 1.103a.866.866 0 00.55.203.855.855 0 00.483-.152l4.407-2.99 4.406 2.99c.323.22.73.2 1.034-.051.307-.252.45-.685.366-1.103l-1.139-5.693 3.863-3.844c.284-.282.392-.728.276-1.135z" fill="url(#paint0_linear)"/></g><defs><linearGradient id="paint0_linear" x1="0" y1=".432" x2="19.793" y2="2.896" gradientUnits="userSpaceOnUse"><stop stop-color="#DB7515"/><stop offset="1" stop-color="#FCCD6D"/></linearGradient><clipPath id="clip0"><path fill="#fff" d="M0 0h17.703v20.092H0z"/></clipPath></defs></svg>