<svg height="512" viewBox="0 0 512.076 512.076" width="512" xmlns="http://www.w3.org/2000/svg"><path fill="#fff" d="M331.544 286.893c-8.372-8.372-18.791-14.52-30.13-17.778-3.972-1.146-8.135 1.155-9.279 5.136a7.499 7.499 0 005.137 9.28 55.08 55.08 0 0123.665 13.969c21.504 21.504 21.504 56.493 0 77.997-10.397 10.398-24.248 16.125-38.998 16.125-14.751 0-28.601-5.727-38.998-16.125-21.504-21.504-21.504-56.493 0-77.997 6.506-6.507 14.591-11.309 23.38-13.886a7.5 7.5 0 10-4.221-14.394c-11.194 3.283-21.487 9.395-29.767 17.673-27.352 27.352-27.352 71.857 0 99.209 13.231 13.231 30.848 20.518 49.605 20.518s36.374-7.287 49.605-20.518c27.352-27.352 27.352-71.857.001-99.209z"/><path fill="#fff" d="M449.304 453.38l-33.567-33.568c-10.934-10.933-28.719-10.932-39.652 0l-.112.112-17.93-17.93c15.721-18.21 24.297-41.195 24.297-65.497 0-26.818-10.443-52.031-29.406-70.995-30.332-30.332-75.4-37.155-112.369-20.483H189.04c-4.143 0-7.5 3.358-7.5 7.5s3.357 7.5 7.5 7.5h27.847a101.172 101.172 0 00-5.944 5.483c-18.963 18.963-29.406 44.176-29.406 70.995 0 26.818 10.443 52.031 29.406 70.994 18.964 18.963 44.177 29.407 70.995 29.407 24.303 0 47.287-8.576 65.498-24.297l17.93 17.931c-5.668 5.763-9.387 14.652-8.056 23.808H82.139c-6.937 0-12.58-5.644-12.58-12.58V101.719h59.144c15.205 0 27.575-12.37 27.575-27.575V15H387.2c6.937 0 12.58 5.644 12.58 12.58v358.114c0 4.142 3.357 7.5 7.5 7.5s7.5-3.358 7.5-7.5V27.58C414.78 12.373 402.408 0 387.2 0H148.78c-.962.512-.597-1.175-5.326 2.221L56.791 88.884c-.197.927-1.343-.397-2.232 5.336v347.54c0 15.208 12.372 27.58 27.58 27.58h282.203c.296.324 34.478 34.523 34.478 34.523 5.296 5.296 12.337 8.212 19.826 8.212s14.53-2.917 19.824-8.212l10.834-10.833c5.295-5.295 8.212-12.336 8.212-19.825s-2.917-14.529-8.212-19.825zm-227.753-56.495c-33.299-33.298-33.299-87.478 0-120.776 16.648-16.649 38.519-24.974 60.388-24.974s43.739 8.325 60.388 24.974c33.299 33.298 33.299 87.478 0 120.776-33.298 33.298-87.48 33.298-120.776 0zM141.278 25.611v48.534c0 6.934-5.642 12.575-12.575 12.575H80.17zm297.42 456.813l-10.834 10.833c-2.462 2.462-5.735 3.819-9.218 3.819s-6.757-1.356-9.219-3.819c0 0-34.703-34.821-35.169-35.511-2.706-4.005-3.368-11.374 1.602-16.494l10.832-10.833a12.995 12.995 0 019.219-3.812 13 13 0 019.219 3.812l33.568 33.568a12.951 12.951 0 013.818 9.218c0 3.483-1.356 6.757-3.818 9.219z"/><path fill="#fff" d="M319.639 59.028c0-12.27-9.981-22.251-22.251-22.251h-93.601c-12.27 0-22.251 9.982-22.251 22.251v18.504c0 12.269 9.981 22.251 22.251 22.251h10.629c4.143 0 7.5-3.358 7.5-7.5s-3.357-7.5-7.5-7.5h-10.629c-3.998 0-7.251-3.253-7.251-7.251V59.028c0-3.999 3.253-7.251 7.251-7.251h93.601c3.998 0 7.251 3.253 7.251 7.251v18.504c0 3.998-3.253 7.251-7.251 7.251h-47.987c-4.143 0-7.5 3.358-7.5 7.5s3.357 7.5 7.5 7.5h47.987c12.27 0 22.251-9.982 22.251-22.251zm-7.5 94.543H189.037c-4.143 0-7.5 3.358-7.5 7.5s3.357 7.5 7.5 7.5H312.14a7.5 7.5 0 10-.001-15zm0 46.702H189.037c-4.143 0-7.5 3.358-7.5 7.5s3.357 7.5 7.5 7.5H312.14a7.5 7.5 0 10-.001-15zm-178.335-46.731a7.53 7.53 0 100 15.058 7.53 7.53 0 000-15.058zm0 46.702a7.53 7.53 0 100 15.058 7.53 7.53 0 000-15.058z"/><circle cx="133.804" cy="252.522" r="7.529"/><path fill="#fff" d="M133.804 295.797a7.53 7.53 0 100 15.058 7.53 7.53 0 000-15.058z"/></svg>