<svg xmlns="http://www.w3.org/2000/svg" viewBox="0 0 512 512"><path d="M412.391 63H212.214c-5.522 0-10 4.478-10 10s4.477 10 10 10h200.177c5.522 0 10-4.478 10-10s-4.478-10-10-10zm-301.572 2.93A10.072 10.072 0 00103.75 63c-2.641 0-5.21 1.069-7.07 2.93-1.87 1.86-2.93 4.44-2.93 7.07s1.06 5.21 2.93 7.069A10.053 10.053 0 00103.75 83c2.63 0 5.21-1.07 7.069-2.931 1.86-1.859 2.931-4.439 2.931-7.069s-1.07-5.21-2.931-7.07zm-36.75 0C72.21 64.07 69.63 63 67 63s-5.21 1.069-7.07 2.93S57 70.37 57 73s1.069 5.21 2.93 7.069C61.79 81.93 64.37 83 67 83s5.21-1.07 7.069-2.931C75.93 78.21 77 75.63 77 73s-1.07-5.21-2.931-7.07zm73.5 0A10.072 10.072 0 00140.5 63c-2.641 0-5.22 1.069-7.07 2.93-1.87 1.86-2.93 4.44-2.93 7.07s1.06 5.21 2.93 7.069A10.035 10.035 0 00140.5 83c2.63 0 5.21-1.07 7.069-2.931C149.43 78.21 150.5 75.63 150.5 73s-1.07-5.21-2.931-7.07z"/><path d="M462 27H10C4.478 27 0 31.478 0 37v438c0 5.522 4.478 10 10 10h369c5.522 0 10-4.478 10-10s-4.478-10-10-10H20V119h431.891c.037 0 .073-.005.109-.006V327c0 5.522 4.478 10 10 10s10-4.478 10-10V37c0-5.522-4.478-10-10-10zm-10 72.006c-.037 0-.073-.006-.109-.006H20V47h432v52.006zM425.649 467.93a10.054 10.054 0 00-7.069-2.93c-2.63 0-5.21 1.069-7.07 2.93-1.86 1.861-2.93 4.44-2.93 7.07s1.069 5.21 2.93 7.069a10.077 10.077 0 007.07 2.931c2.64 0 5.21-1.07 7.069-2.931 1.86-1.859 2.931-4.439 2.931-7.069s-1.07-5.21-2.931-7.07z"/><path d="M502.343 405.372l-.078-.077-59.202-57.919c-3.916-3.831-10.187-3.798-14.064.077l-10.404 10.404-11.251-11.251c14.47-17.216 23.201-39.409 23.201-63.606 0-54.589-44.411-99-99-99-34.68 0-65.248 17.928-82.935 45H108c-29.775 0-54 24.225-54 54s24.225 54 54 54h140.609c17.687 27.072 48.254 45 82.935 45 23.203 0 44.564-8.027 61.461-21.446L404.451 372l-8.619 8.619a10.003 10.003 0 00.078 14.22l59.167 57.884c6.227 6.205 14.521 9.615 23.381 9.615h.166c8.906-.043 17.272-3.529 23.559-9.816 6.288-6.287 9.774-14.653 9.817-23.56.043-8.941-3.387-17.319-9.657-23.59zM238.56 317H108c-18.748 0-34-15.252-34-34s15.252-34 34-34h130.56c-3.891 10.608-6.016 22.06-6.016 34s2.125 23.392 6.016 34zm92.984 45c-43.561 0-79-35.439-79-79s35.439-79 79-79 79 35.439 79 79-35.439 79-79 79zm156.497 76.38a13.46 13.46 0 01-9.513 3.958h-.067c-3.538 0-6.833-1.348-9.284-3.8l-.078-.077-51.976-50.849 8.536-8.536.006-.005.005-.006 10.476-10.476 52.086 50.957c2.447 2.464 3.784 5.771 3.768 9.319a13.462 13.462 0 01-3.959 9.515z"/><path d="M171.53 275.9a10.05 10.05 0 00-7.07-2.93c-2.641 0-5.22 1.07-7.07 2.93a10.017 10.017 0 00-2.93 7.07c0 2.63 1.06 5.21 2.93 7.07a10.062 10.062 0 007.07 2.93c2.63 0 5.2-1.07 7.07-2.93 1.859-1.87 2.93-4.44 2.93-7.07s-1.07-5.21-2.93-7.07zm-41.461.3c-1.859-1.86-4.439-2.92-7.069-2.92s-5.21 1.06-7.07 2.92a10.113 10.113 0 00-2.93 7.08c0 2.63 1.069 5.21 2.93 7.069 1.86 1.86 4.44 2.931 7.07 2.931s5.21-1.07 7.069-2.931A10.092 10.092 0 00133 283.28a10.11 10.11 0 00-2.931-7.08zm82.91-.61a10.054 10.054 0 00-7.069-2.93c-2.63 0-5.21 1.069-7.07 2.93-1.86 1.861-2.93 4.44-2.93 7.07s1.069 5.21 2.93 7.069c1.86 1.86 4.44 2.931 7.07 2.931s5.21-1.07 7.069-2.931c1.86-1.859 2.931-4.439 2.931-7.069s-1.07-5.21-2.931-7.07zM331.544 232c-5.522 0-10 4.478-10 10s4.478 10 10 10c17.094 0 31 13.906 31 31 0 5.522 4.478 10 10 10s10-4.478 10-10c0-28.121-22.879-51-51-51zM200.5 369h-77.499c-5.522 0-10 4.478-10 10s4.478 10 10 10H200.5c5.522 0 10-4.478 10-10s-4.478-10-10-10zm49.109 2.931a10.056 10.056 0 00-7.069-2.93c-2.63 0-5.21 1.069-7.07 2.93-1.86 1.861-2.93 4.44-2.93 7.07s1.069 5.21 2.93 7.069c1.87 1.86 4.44 2.931 7.07 2.931s5.21-1.071 7.069-2.931c1.87-1.859 2.931-4.439 2.931-7.069s-1.061-5.21-2.931-7.07z"/></svg>