<svg height="512" width="512" xmlns="http://www.w3.org/2000/svg"><path d="M302.343 361.657a24.968 24.968 0 0032.777 2.213l58.934 65.482a8 8 0 0011.892 0l72-80a8 8 0 00-.289-11.009l-58.421-58.422a24.97 24.97 0 00-35.157-35.157l-29.931-29.931c.177-.152.365-.288.539-.445l17.778-16.122a23.968 23.968 0 00-8.543-40.528 24.177 24.177 0 00.82-5.158 23.994 23.994 0 00-21.47-25.038 23.994 23.994 0 00-21.533-23.71 23.959 23.959 0 00-40.084-17.61l-6.009 5.449a44.075 44.075 0 00-52.9 14L212 120h-36a23.988 23.988 0 00-17.874 40 23.958 23.958 0 000 32 23.948 23.948 0 00-.663 31.222l-21.992 21.992a24.965 24.965 0 00-35.228 35.228l-65.9 65.9a8 8 0 000 11.314l72 72A8 8 0 00112 432h.108a8 8 0 005.7-2.5l63.938-67.49a24.967 24.967 0 0034.941-35.669l-.591-.59 43.446-45.859 42.288 46.987a24.961 24.961 0 00.513 34.776zm158.634-17.367L400 412.041l-53.4-59.33 61.4-61.4zm-67.32-86.633a8.97 8.97 0 0112.686 12.686l-75.986 75.985c-.049.043-.1.079-.151.123a8.17 8.17 0 00-.72.748l-3.143 3.144a8.97 8.97 0 01-12.686-12.686zm-37.319-85.166a8 8 0 015.378 13.923l-17.778 16.122a8 8 0 01-10.749-11.852l17.779-16.122a7.966 7.966 0 015.37-2.071zm-15.575-29.083c.133 0 .265 0 .4.01a8 8 0 014.984 13.916l-5.926 5.374-11.861 10.756a8 8 0 01-10.74-11.861l17.78-16.121a7.948 7.948 0 015.363-2.074zm-26.863-21.63a8 8 0 1110.749 11.853l-12.676 11.5a26.13 26.13 0 00-3.408-13.653l-1.828-3.2zm-21.5-23.7a8 8 0 0110.748 11.853l-4.544 4.121-2.166-3.789a43.959 43.959 0 00-7.164-9.35zm-56.857 17.2a28.175 28.175 0 0147 2.925l7.159 12.528.01.017 4.954 8.67a10.042 10.042 0 01-4.228 13.962 10.087 10.087 0 01-13.1-3.814l-15.405-25.675a8 8 0 00-6.86-3.884H232zm-123.7 297.26L51.313 352l60.2-60.2 58.9 58.9zm93.527-62.188a8.98 8.98 0 01-12.685 0l-80-80a8.97 8.97 0 0112.685-12.686l71.76 71.76a7.952 7.952 0 004.311 4.311l3.929 3.929a8.97 8.97 0 010 12.686zm-.593-35.908l-57.95-57.95 13.379-13.378A24.031 24.031 0 00184 264h39.016l23.886 5.971zm57.167-55.787a8 8 0 00-4.006-2.409l-32-8A7.977 7.977 0 00224 248h-40a8 8 0 010-16h24a8 8 0 000-16h-32a8 8 0 010-16h32a8 8 0 000-16h-32a8 8 0 010-16h32a8 8 0 000-16h-32a8 8 0 010-16h74.552l13.073 21.791a26.154 26.154 0 0022.426 12.615 25.785 25.785 0 0011.551-2.722c.09-.046.177-.1.266-.142.376.057.751.108 1.128.147A24.009 24.009 0 00315.4 190.3a24.222 24.222 0 00-.813 5.135 23.995 23.995 0 0022.665 25.132L372.686 256l-59.539 59.538z"/><circle cx="376" cy="352" r="8"/><circle cx="136" cy="352" r="8"/></svg>