<svg width="45" height="45" fill="none" xmlns="http://www.w3.org/2000/svg"><path d="M44.541 21.258c-.006-.073-.03-.342-.05-.597-.513-6.496-3.977-12.508-9.377-16.274A21.99 21.99 0 0025.167.591c-.961-.12-1.312-.136-2.684-.136-1.49.003-1.924.03-3.14.202C11.476 1.764 4.748 7.14 1.886 14.6 1.164 16.488.727 18.366.515 20.512c-.073.732-.083 3.078-.017 3.793.275 3.001 1.01 5.592 2.313 8.165 3.345 6.619 9.841 11.137 17.188 11.955.914.103 1.53.136 2.501.136.97 0 1.587-.033 2.501-.136 8.152-.907 15.165-6.337 18.113-14.025.725-1.895 1.153-3.726 1.368-5.896.05-.464.093-2.902.06-3.246zM42.3 24.312a4.017 4.017 0 01-.063.457c-.023.023-4.372-.45-4.406-.477-.01-.01 0-.192.027-.401.08-.64.096-1.812.033-2.524a18.68 18.68 0 00-.073-.719c-.017-.083-.01-.103.036-.103.034 0 .998-.119 2.14-.265 1.146-.145 2.104-.265 2.13-.265.027 0 .057.04.067.093.016.08.129 1.083.165 1.464.027.308-.013 2.319-.056 2.74zm-1.487 5.922c-.236.56-.736 1.574-1.05 2.12-.358.63-.812 1.329-.849 1.319-.03-.01-3.577-2.408-3.633-2.458-.014-.013.043-.126.129-.252.457-.682 1.07-1.845 1.401-2.656l.176-.434.35.125c.193.07 1.09.398 1.992.73.9.33 1.679.615 1.729.635l.09.03-.084.222c-.046.123-.159.4-.251.62zM39.02 16.187c-1.127.434-2.064.782-2.08.775-.017-.006-.127-.235-.242-.506-.362-.862-.845-1.783-1.28-2.435-.102-.156-.198-.298-.208-.322-.016-.023.616-.49 1.74-1.291.97-.69 1.785-1.266 1.804-1.282.083-.05 1.034 1.5 1.538 2.507.298.59.808 1.746.781 1.766-.003.003-.927.357-2.053.788zM35.7 23.73a13.23 13.23 0 01-3.08 7.337 17.6 17.6 0 01-1.444 1.457 13.551 13.551 0 01-4.615 2.6 14.35 14.35 0 01-2.653.567c-.49.056-2.329.056-2.816 0-2.176-.261-4.05-.93-5.823-2.083a12.08 12.08 0 01-2.074-1.677c-2.19-2.156-3.501-4.856-3.879-7.973-.07-.563-.08-2.034-.02-2.65.239-2.494 1.11-4.766 2.58-6.73a13.538 13.538 0 012.638-2.657 13.262 13.262 0 0110.222-2.488c4.826.818 8.828 4.27 10.372 8.954.271.821.5 1.918.592 2.835.06.61.06 1.888 0 2.508zm-.374 13.922a20.731 20.731 0 01-2.292 1.71c-.656.417-1.123.678-1.163.639a226.22 226.22 0 01-2.116-3.82c0-.013.205-.145.457-.294a15.837 15.837 0 002.219-1.637l.345-.298.125.13c.282.287 2.85 3.176 2.842 3.196a8.54 8.54 0 01-.417.374zM34.163 9.263a88.319 88.319 0 01-1.45 1.643c-.01 0-.146-.11-.302-.242a16.044 16.044 0 00-2.382-1.653l-.433-.245 1.026-1.918a396.984 396.984 0 011.044-1.938c.04-.043 1.15.603 1.914 1.113.73.487 2.05 1.514 2.031 1.577-.007.013-.656.762-1.448 1.663zM27.38 41.779c-.016 0-.258.052-.54.115-1.248.282-2.861.48-3.915.48-.4 0-.377.02-.325-.28.017-.104.004-.846-.036-1.955-.033-.984-.063-1.878-.063-1.991v-.202l.606-.02a14.94 14.94 0 002.816-.374c.199-.047.364-.08.374-.07.02.02 1.097 4.16 1.103 4.24.004.03-.006.056-.02.056zM26.667 5.39c-.271 1.13-.5 2.06-.507 2.063a1.722 1.722 0 01-.304-.053 14.451 14.451 0 00-2.717-.328l-.705-.02V2.626h.457c1.226 0 2.624.172 4.223.52.083.016.093.03.073.106-.013.046-.245 1.01-.52 2.14zm-8.291 2.252a15.19 15.19 0 00-2.627.964l-.503.242-.073-.14c-.037-.075-.5-.953-1.024-1.954a75.726 75.726 0 01-.957-1.845c0-.07 1.13-.583 1.988-.904.848-.318 2.45-.798 2.494-.752.033.037 1.106 4.257 1.086 4.277-.01.01-.182.06-.384.112zm-.149 32.141c-.39 1.607-.487 1.961-.53 1.961-.242 0-2.213-.636-3.031-.977-.626-.261-1.408-.636-1.408-.679 0-.013.464-.907 1.03-1.984l1.03-1.954.325.162c.769.384 1.746.765 2.567.994l.537.149c.03.01.026.056-.003.188-.023.097-.255 1.06-.517 2.14zm-7.324-4.163c-.755.828-1.421 1.556-1.477 1.62l-.103.112-.292-.262a23.827 23.827 0 01-1.715-1.755c-.534-.62-1.2-1.504-1.16-1.537.017-.017.775-.547 1.686-1.18.911-.636 1.723-1.202 1.806-1.262l.152-.106.384.517c.212.285.557.716.765.95.365.418 1.25 1.313 1.319 1.34.016.002.03.019.023.035-.007.014-.63.7-1.388 1.528zm.063-23.403c-.427.473-.749.864-1.04 1.265l-.192.265-.368-.252c-.202-.139-1.01-.702-1.799-1.245l-1.427-.99.056-.097c.205-.347 1.106-1.47 1.703-2.116.43-.464 1.384-1.395 1.42-1.382.014.007.673.752 1.468 1.66l1.441 1.646-.437.411c-.242.225-.61.603-.825.835zm-3.1 5.495a15.951 15.951 0 00-.653 2.826c-.013.092-.033.172-.043.172-.056.003-4.396-.543-4.41-.553a6.495 6.495 0 01.077-.596 19.57 19.57 0 01.901-3.512l.189-.533.12.043 1.99.729 1.964.719c.05.02.086.05.076.073-.01.02-.106.304-.212.632zm.168 10.335c-.033.01-.947.348-2.03.746-1.083.397-1.994.732-2.024.745-.037.013-.06 0-.073-.04-.01-.033-.103-.298-.205-.59a19.535 19.535 0 01-.633-2.202c-.169-.746-.331-1.75-.292-1.786.017-.013.961-.142 2.1-.281 1.14-.14 2.124-.265 2.19-.275l.12-.017.04.275c.138.957.367 1.925.658 2.79.11.314.2.579.2.589.002.013-.02.033-.05.046z" fill="url(#paint0_linear)"/><path d="M29.324 17.342a1.93 1.93 0 00-.351-.725 2.218 2.218 0 00-2.332-.901c-.209.05-.606.235-.772.36-.076.06-.865.832-1.753 1.717l-1.616 1.61-1.613-1.61c-.891-.885-1.676-1.653-1.75-1.71a2.094 2.094 0 00-1.291-.417 2.041 2.041 0 00-1.361.47 2.137 2.137 0 00-.819 1.693c-.003.467.113.858.375 1.249.06.086.841.894 1.735 1.792l1.627 1.63-1.627 1.633c-.894.894-1.676 1.702-1.735 1.788a2.109 2.109 0 00-.375 1.25c0 .384.07.655.252 1.01.265.513.805.94 1.381 1.096.262.07.776.076 1.027.017.239-.06.633-.239.805-.372.076-.06.865-.83 1.753-1.715l1.616-1.61 1.63 1.626c.898.895 1.706 1.676 1.792 1.736.209.136.523.278.752.335.252.06.765.052 1.023-.017a2.228 2.228 0 001.58-1.58 2.73 2.73 0 00.017-1.024c-.06-.238-.239-.632-.371-.805-.06-.076-.831-.864-1.716-1.752l-1.61-1.616 1.643-1.647c.905-.907 1.693-1.722 1.75-1.808.354-.524.476-1.156.334-1.703z" fill="url(#paint1_linear)"/><defs><linearGradient id="paint0_linear" x1=".454" y1=".455" x2="7.114" y2="49.631" gradientUnits="userSpaceOnUse"><stop stop-color="#DB7515"/><stop offset="1" stop-color="#FCCD6D"/></linearGradient><linearGradient id="paint1_linear" x1="15.666" y1="15.656" x2="17.726" y2="30.908" gradientUnits="userSpaceOnUse"><stop stop-color="#DB7515"/><stop offset="1" stop-color="#FCCD6D"/></linearGradient></defs></svg>