<svg id="Capa_1" enable-background="new 0 0 511.998 511.998" height="512" viewBox="0 0 511.998 511.998" width="512" xmlns="http://www.w3.org/2000/svg"><g><path d="m333.66 31.058h-125.252c-3.502-17.683-19.133-31.058-37.829-31.058s-34.326 13.375-37.829 31.058h-125.25c-4.142 0-7.5 3.357-7.5 7.5v465.94c0 4.143 3.358 7.5 7.5 7.5h326.16c4.143 0 7.5-3.357 7.5-7.5v-357.35c0-4.143-3.357-7.5-7.5-7.5s-7.5 3.357-7.5 7.5v349.85h-311.16v-450.94h62.658c-.273 5.393.074 10.749 1.04 16.07h-40.138c-4.142 0-7.5 3.357-7.5 7.5v293.79c0 4.143 3.358 7.5 7.5 7.5s7.5-3.357 7.5-7.5v-286.29h39.734c7.225 9.43 18.593 15.527 31.364 15.527h106.842c12.771 0 24.139-6.097 31.364-15.527h39.726v388.811h-249.03v-69.83c0-4.143-3.358-7.5-7.5-7.5s-7.5 3.357-7.5 7.5v77.33c0 4.143 3.358 7.5 7.5 7.5h264.03c4.143 0 7.5-3.357 7.5-7.5v-403.811c0-4.143-3.357-7.5-7.5-7.5h-40.13c.966-5.321 1.313-10.678 1.04-16.07h62.66v68.41c0 4.143 3.357 7.5 7.5 7.5s7.5-3.357 7.5-7.5v-75.91c0-4.143-3.357-7.5-7.5-7.5zm-109.66 46.597h-106.842c-17.38 0-25.087-17.156-24.5-31.593h46.859c4.051 0 7.517-3.707 7.501-7.548.026-12.97 10.585-23.514 23.561-23.514 12.987 0 23.553 10.562 23.562 23.546 0 3.647 2.832 7.516 7.5 7.516h46.859c.587 14.437-7.12 31.593-24.5 31.593z"/><path d="m240.469 139.249c4.142 0 7.5-3.357 7.5-7.5s-3.358-7.5-7.5-7.5h-139.78c-4.142 0-7.5 3.357-7.5 7.5s3.358 7.5 7.5 7.5z"/><path d="m62.126 193.874c0 4.143 3.358 7.5 7.5 7.5h201.905c4.143 0 7.5-3.357 7.5-7.5s-3.357-7.5-7.5-7.5h-201.905c-4.142 0-7.5 3.357-7.5 7.5z"/><path d="m69.626 232.436h201.905c4.143 0 7.5-3.357 7.5-7.5s-3.357-7.5-7.5-7.5h-201.905c-4.142 0-7.5 3.357-7.5 7.5s3.358 7.5 7.5 7.5z"/><path d="m69.626 263.498h201.905c4.143 0 7.5-3.357 7.5-7.5s-3.357-7.5-7.5-7.5h-201.905c-4.142 0-7.5 3.357-7.5 7.5s3.358 7.5 7.5 7.5z"/><path d="m69.626 294.561h201.905c4.143 0 7.5-3.357 7.5-7.5s-3.357-7.5-7.5-7.5h-201.905c-4.142 0-7.5 3.357-7.5 7.5s3.358 7.5 7.5 7.5z"/><path d="m69.626 325.622h201.905c4.143 0 7.5-3.357 7.5-7.5s-3.357-7.5-7.5-7.5h-201.905c-4.142 0-7.5 3.357-7.5 7.5s3.358 7.5 7.5 7.5z"/><path d="m271.531 372.747h-77.656c-4.142 0-7.5 3.357-7.5 7.5s3.358 7.5 7.5 7.5h77.656c4.143 0 7.5-3.357 7.5-7.5s-3.357-7.5-7.5-7.5z"/><path d="m93.673 379.763c0 20.996 17.082 38.078 38.078 38.078s38.078-17.082 38.078-38.078-17.082-38.078-38.078-38.078-38.078 17.082-38.078 38.078zm61.156 0c0 12.726-10.353 23.078-23.078 23.078s-23.078-10.353-23.078-23.078 10.353-23.078 23.078-23.078 23.078 10.352 23.078 23.078z"/><path d="m511.185 470.523-15.531-30.578c-1.278-2.518-3.862-4.104-6.687-4.104h-22.984l5.957-57.8c25.974-21.567 18.803-64.276-10.06-77.685-3.755-1.747-8.216-.113-9.962 3.642-1.745 3.757-.115 8.217 3.642 9.962 19.566 9.09 24.38 38.047 6.699 52.611h-39.77c-17.689-14.559-12.856-43.525 6.701-52.611 3.757-1.745 5.387-6.205 3.642-9.962-1.746-3.756-6.205-5.386-9.962-3.642-28.855 13.405-36.045 56.125-10.06 77.687l5.957 57.798h-22.987c-2.823 0-5.408 1.586-6.687 4.104l-15.531 30.578c-.535 1.053-.813 2.216-.813 3.396v30.578c0 4.143 3.357 7.5 7.5 7.5h124.249c4.143 0 7.5-3.357 7.5-7.5v-30.577c0-1.181-.278-2.344-.813-3.397zm-82.931-88.951h28.242l-5.593 54.267h-17.057zm-27.871 69.27h83.981l8.158 16.063h-100.298zm-12.634 46.156v-15.094h109.249v15.094z"/></g></svg>