<svg height="480pt" viewBox="0 0 480 480" width="480pt" xmlns="http://www.w3.org/2000/svg"><path d="m48 440c0 4.417969-3.582031 8-8 8s-8-3.582031-8-8 3.582031-8 8-8 8 3.582031 8 8zm0 0"/><path d="m400 40c0 4.417969-3.582031 8-8 8s-8-3.582031-8-8 3.582031-8 8-8 8 3.582031 8 8zm0 0"/><path d="m424 40c0 4.417969-3.582031 8-8 8s-8-3.582031-8-8 3.582031-8 8-8 8 3.582031 8 8zm0 0"/><path d="m448 40c0 4.417969-3.582031 8-8 8s-8-3.582031-8-8 3.582031-8 8-8 8 3.582031 8 8zm0 0"/><path d="m456 0h-432c-13.25.015625-23.984375 10.75-24 24v432c.015625 13.25 10.75 23.984375 24 24h432c13.25-.015625 23.984375-10.75 24-24v-432c-.015625-13.25-10.75-23.984375-24-24zm-432 16h432c4.417969.003906 7.996094 3.582031 8 8v72h-448v-72c.003906-4.417969 3.582031-7.996094 8-8zm440 96v288h-448v-288zm-8 352h-432c-4.417969-.003906-7.996094-3.582031-8-8v-40h448v40c-.003906 4.417969-3.582031 7.996094-8 8zm0 0"/><path d="m56 80c13.253906 0 24-10.746094 24-24s-10.746094-24-24-24-24 10.746094-24 24c.015625 13.25 10.75 23.984375 24 24zm0-32c4.417969 0 8 3.582031 8 8s-3.582031 8-8 8-8-3.582031-8-8c.003906-4.417969 3.582031-7.996094 8-8zm0 0"/><path d="m96 48h16v16h-16zm0 0"/><path d="m128 48h32v16h-32zm0 0"/><path d="m176 48h16v16h-16zm0 0"/><path d="m392 432h16v16h-16zm0 0"/><path d="m424 432h24v16h-24zm0 0"/><path d="m96 376h288c13.25-.015625 23.984375-10.75 24-24v-192c-.015625-13.25-10.75-23.984375-24-24h-288c-13.25.015625-23.984375 10.75-24 24v192c.015625 13.25 10.75 23.984375 24 24zm-8-216c.003906-4.417969 3.582031-7.996094 8-8h288c4.417969.003906 7.996094 3.582031 8 8v192c-.003906 4.417969-3.582031 7.996094-8 8h-288c-4.417969-.003906-7.996094-3.582031-8-8zm0 0"/><path d="m304 248c5.511719-.007812 10.960938-1.160156 16-3.390625 16.769531 7.382813 36.410156 2.425781 47.671875-12.027344s11.261719-34.710937 0-49.164062-30.902344-19.410157-47.671875-12.027344c-14.90625-6.519531-32.273438-3.355469-43.921875 7.996094-11.652344 11.355469-15.261719 28.636719-9.128906 43.703125 6.132812 15.070312 20.78125 24.917968 37.050781 24.910156zm8-40c.019531-6.789062 2.929688-13.246094 8-17.757812 5.085938 4.5 8 10.964843 8 17.757812s-2.914062 13.257812-8 17.757812c-5.070312-4.511718-7.980469-10.96875-8-17.757812zm48 0c-.015625 13.25-10.75 23.984375-24 24l-.1875-.019531c10.917969-14.121094 10.917969-33.839844 0-47.960938l.1875-.019531c13.25.015625 23.984375 10.75 24 24zm-56-24 .1875.019531c-10.917969 14.121094-10.917969 33.839844 0 47.960938l-.1875.019531c-13.253906 0-24-10.746094-24-24s10.746094-24 24-24zm0 0"/><path d="m120 248h48c8.832031-.011719 15.988281-7.167969 16-16v-48c-.011719-8.832031-7.167969-15.988281-16-16h-48c-8.832031.011719-15.988281 7.167969-16 16v48c.011719 8.832031 7.167969 15.988281 16 16zm48-64 .011719 48h-48.011719v-16h24v-16h-24v-16zm0 0"/><path d="m104 264h16v16h-16zm0 0"/><path d="m136 264h208v16h-208zm0 0"/><path d="m360 264h16v16h-16zm0 0"/><path d="m216 296h16v16h-16zm0 0"/><path d="m248 296h48v16h-48zm0 0"/><path d="m216 328h16v16h-16zm0 0"/><path d="m248 328h48v16h-48zm0 0"/><path d="m360 296h-32c-8.832031.011719-15.988281 7.167969-16 16v16c.011719 8.832031 7.167969 15.988281 16 16h32c8.832031-.011719 15.988281-7.167969 16-16v-16c-.011719-8.832031-7.167969-15.988281-16-16zm-32 32v-16h32l.011719 16zm0 0"/><path d="m104 328h16v16h-16zm0 0"/><path d="m136 328h32v16h-32zm0 0"/></svg>