<svg height="512" viewBox="0 0 512 512" width="512" xmlns="http://www.w3.org/2000/svg"><g id="outline"><path d="m302.343 361.657a24.968 24.968 0 0 0 32.777 2.213l58.934 65.482a8 8 0 0 0 11.892 0l72-80a8 8 0 0 0 -.289-11.009l-58.421-58.422a24.97 24.97 0 0 0 -35.157-35.157l-29.931-29.931c.177-.152.365-.288.539-.445l17.778-16.122a23.968 23.968 0 0 0 -8.543-40.528 24.177 24.177 0 0 0 .82-5.158 23.994 23.994 0 0 0 -21.47-25.038 23.994 23.994 0 0 0 -21.533-23.71 23.959 23.959 0 0 0 -40.084-17.61l-6.009 5.449a44.075 44.075 0 0 0 -52.9 14l-10.746 14.329h-36a23.988 23.988 0 0 0 -17.874 40 23.958 23.958 0 0 0 0 32 23.948 23.948 0 0 0 -.663 31.222l-21.992 21.992a24.965 24.965 0 0 0 -35.228 35.228l-65.9 65.9a8 8 0 0 0 0 11.314l72 72a8 8 0 0 0 5.657 2.344h.108a8 8 0 0 0 5.7-2.5l63.938-67.49a24.967 24.967 0 0 0 34.941-35.669l-.591-.59 43.446-45.859 42.288 46.987a24.961 24.961 0 0 0 .513 34.776zm158.634-17.367-60.977 67.751-53.4-59.33 61.4-61.4zm-67.32-86.633a8.97 8.97 0 0 1 12.686 12.686l-75.986 75.985c-.049.043-.1.079-.151.123a8.17 8.17 0 0 0 -.72.748l-3.143 3.144a8.97 8.97 0 0 1 -12.686-12.686zm-37.319-85.166a8 8 0 0 1 5.378 13.923l-17.778 16.122a8 8 0 0 1 -10.749-11.852l17.779-16.122a7.966 7.966 0 0 1 5.37-2.071zm-15.575-29.083c.133 0 .265 0 .4.01a8 8 0 0 1 4.984 13.916l-5.926 5.374-11.861 10.756a8 8 0 0 1 -10.74-11.861l17.78-16.121a7.948 7.948 0 0 1 5.363-2.074zm-26.863-21.63a8 8 0 1 1 10.749 11.853l-12.676 11.5a26.13 26.13 0 0 0 -3.408-13.653l-1.828-3.2zm-21.5-23.7a8 8 0 0 1 10.748 11.853l-4.544 4.121-2.166-3.789a43.959 43.959 0 0 0 -7.164-9.35zm-56.857 17.2a28.175 28.175 0 0 1 47 2.925l7.159 12.528.01.017 4.954 8.67a10.042 10.042 0 0 1 -4.228 13.962 10.087 10.087 0 0 1 -13.1-3.814l-15.405-25.675a8 8 0 0 0 -6.86-3.884h-23.073zm-123.7 297.26-60.53-60.538 60.2-60.2 58.9 58.9zm93.527-62.188a8.98 8.98 0 0 1 -12.685 0l-80-80a8.97 8.97 0 0 1 12.685-12.686l71.76 71.76a7.952 7.952 0 0 0 4.311 4.311l3.929 3.929a8.97 8.97 0 0 1 0 12.686zm-.593-35.908-57.95-57.95 13.379-13.378a24.031 24.031 0 0 0 23.794 20.886h39.016l23.886 5.971zm57.167-55.787a8 8 0 0 0 -4.006-2.409l-32-8a7.977 7.977 0 0 0 -1.938-.246h-40a8 8 0 0 1 0-16h24a8 8 0 0 0 0-16h-32a8 8 0 0 1 0-16h32a8 8 0 0 0 0-16h-32a8 8 0 0 1 0-16h32a8 8 0 0 0 0-16h-32a8 8 0 0 1 0-16h74.552l13.073 21.791a26.154 26.154 0 0 0 22.426 12.615 25.785 25.785 0 0 0 11.551-2.722c.09-.046.177-.1.266-.142.376.057.751.108 1.128.147a24.009 24.009 0 0 0 16.404 22.611 24.222 24.222 0 0 0 -.813 5.135 23.995 23.995 0 0 0 22.665 25.132l35.434 35.433-59.539 59.538z"/><circle cx="376" cy="352" r="8"/><circle cx="136" cy="352" r="8"/></g></svg>