<svg xmlns="http://www.w3.org/2000/svg" width="512" height="512"><g fill="#555"><path d="M56 176a24 24 0 1024 24 24.027 24.027 0 00-24-24zm0 32a8 8 0 118-8 8.009 8.009 0 01-8 8zm176-32h-64a8 8 0 000 16h64a8 8 0 000-16zm0 24h-16a8 8 0 000 16h16a8 8 0 000-16zm-88-24h-8a8 8 0 000 16h8a8 8 0 000-16zM56 64a24 24 0 1024 24 24.027 24.027 0 00-24-24zm0 32a8 8 0 118-8 8.009 8.009 0 01-8 8zm176-32h-64a8 8 0 000 16h64a8 8 0 000-16zm0 24h-16a8 8 0 000 16h16a8 8 0 000-16zm-88-24h-8a8 8 0 000 16h8a8 8 0 000-16zM56 288a24 24 0 1024 24 24.027 24.027 0 00-24-24zm0 32a8 8 0 118-8 8.009 8.009 0 01-8 8zm176-32h-64a8 8 0 000 16h64a8 8 0 000-16zm0 24h-16a8 8 0 000 16h16a8 8 0 000-16zm-88-24h-8a8 8 0 000 16h8a8 8 0 000-16zM56 400a24 24 0 1024 24 24.027 24.027 0 00-24-24zm0 32a8 8 0 118-8 8.009 8.009 0 01-8 8zm176-32h-64a8 8 0 000 16h64a8 8 0 000-16zm0 24h-16a8 8 0 000 16h16a8 8 0 000-16zm-88-24h-8a8 8 0 000 16h8a8 8 0 000-16z"/><path d="M488 205.46V144a32.03 32.03 0 00-32-32h-80a32.03 32.03 0 00-32 32v61.46A87.444 87.444 0 00328.37 248H304V88a8 8 0 00-8-8h-32V64a24.032 24.032 0 00-24-24H32A24.032 24.032 0 008 64v48a24.032 24.032 0 0024 24h208a24.032 24.032 0 0024-24V96h24v96h-24v-16a24.032 24.032 0 00-24-24H32a24.032 24.032 0 00-24 24v48a24.032 24.032 0 0024 24h208a24.032 24.032 0 0024-24v-16h24v96h-24v-16a24.032 24.032 0 00-24-24H32a24.032 24.032 0 00-24 24v48a24.032 24.032 0 0024 24h208a24.032 24.032 0 0024-24v-16h24v96h-24v-16a24.032 24.032 0 00-24-24H32a24.032 24.032 0 00-24 24v48a24.032 24.032 0 0024 24h208a24.032 24.032 0 0024-24v-16h32a8 8 0 008-8V264h24.37A87.444 87.444 0 00344 306.54V368a32.036 32.036 0 0032 32h80a32.036 32.036 0 0032-32v-61.46a87.822 87.822 0 000-101.08zM248 112a8.011 8.011 0 01-8 8H32a8.011 8.011 0 01-8-8V64a8.011 8.011 0 018-8h208a8.011 8.011 0 018 8zm0 112a8.011 8.011 0 01-8 8H32a8.011 8.011 0 01-8-8v-48a8.011 8.011 0 018-8h208a8.011 8.011 0 018 8zm0 112a8.011 8.011 0 01-8 8H32a8.011 8.011 0 01-8-8v-48a8.011 8.011 0 018-8h208a8.011 8.011 0 018 8zm0 112a8.011 8.011 0 01-8 8H32a8.011 8.011 0 01-8-8v-48a8.011 8.011 0 018-8h208a8.011 8.011 0 018 8zm112-304a16.021 16.021 0 0116-16h80a16.021 16.021 0 0116 16v44.17a87.824 87.824 0 00-112 0zm112 224a16.021 16.021 0 01-16 16h-80a16.021 16.021 0 01-16-16v-44.17c.84.7 1.7 1.37 2.57 2.04a7.771 7.771 0 001.3.98 87.8 87.8 0 00104.26 0 7.771 7.771 0 001.3-.98c.87-.67 1.73-1.34 2.57-2.04zm-56-104a40 40 0 0140 40v11.83a71.82 71.82 0 01-80 0V304a40.04 40.04 0 0140-40zm-16-32a16 16 0 1116 16 16.021 16.021 0 01-16-16zm71.93 69.27a56.176 56.176 0 00-32.08-47.97 32 32 0 10-47.67.03 56.1 56.1 0 00-32.11 47.94 72 72 0 11111.86 0z"/></g></svg>