<svg width="30" height="31" fill="none" xmlns="http://www.w3.org/2000/svg"><g clip-path="url(#clip0)"><path d="M15 .18c-8.271 0-15 6.729-15 15 0 8.27 6.729 15 15 15s15-6.73 15-15c0-8.271-6.729-15-15-15zm0 27.5c-6.892 0-12.5-5.608-12.5-12.5 0-6.893 5.608-12.5 12.5-12.5s12.5 5.607 12.5 12.5c0 6.892-5.608 12.5-12.5 12.5z" fill="url(#paint0_linear)"/><path d="M16.75 7.557a4.252 4.252 0 00-.5-.177v-2.2h-2.5v2.208a4.363 4.363 0 00-2.753 2.447 4.345 4.345 0 00-.053 3.348 4.36 4.36 0 002.358 2.417l2.431.984c.46.198.814.564.999 1.03.184.466.176.976-.023 1.435-.198.46-.565.814-1.03.999a1.86 1.86 0 01-1.435-.023 1.87 1.87 0 01-1.118-1.72l-.001-1.25-2.5.002v1.25a4.37 4.37 0 002.626 4.013c.164.071.33.128.5.178v2.682h2.5v-2.69a4.346 4.346 0 002.753-2.45 4.344 4.344 0 00.052-3.348 4.365 4.365 0 00-2.357-2.416l-2.431-.984a1.863 1.863 0 01-1-1.03 1.864 1.864 0 01.023-1.436c.199-.46.565-.814 1.03-.999a1.865 1.865 0 011.436.023c.668.29 1.118.924 1.118 1.579v1.25h2.5v-1.25c0-1.663-1.03-3.183-2.626-3.873z" fill="url(#paint1_linear)"/></g><defs><linearGradient id="paint0_linear" x1="0" y1=".18" x2="33.449" y2="4.709" gradientUnits="userSpaceOnUse"><stop stop-color="#A8D061"/><stop offset="1" stop-color="#A8D061"/></linearGradient><linearGradient id="paint1_linear" x1="10.625" y1="5.18" x2="20.525" y2="5.766" gradientUnits="userSpaceOnUse"><stop stop-color="#A8D061"/><stop offset="1" stop-color="#A8D061"/></linearGradient><clipPath id="clip0"><path fill="#fff" transform="translate(0 .18)" d="M0 0h30v30H0z"/></clipPath></defs></svg>