<svg width="30" height="31" fill="none" xmlns="http://www.w3.org/2000/svg"><g clip-path="url(#clip0)"><path d="M15 .18c-8.27 0-15 6.73-15 15s6.73 15 15 15 15-6.73 15-15-6.73-15-15-15zm0 28.125c-7.237 0-13.125-5.888-13.125-13.125C1.875 7.942 7.763 2.055 15 2.055c7.238 0 13.125 5.887 13.125 13.125 0 7.237-5.887 13.125-13.125 13.125z" fill="url(#paint0_linear)"/><path d="M18.221 20.087a3.988 3.988 0 01-2.284.718c-1.726 0-3.223-1.14-4.034-2.813H15a.938.938 0 000-1.875h-3.671a6.682 6.682 0 01-.079-.937c0-.32.036-.632.079-.938h4.608a.938.938 0 000-1.875h-4.034c.811-1.672 2.308-2.812 4.034-2.812.818 0 1.587.242 2.284.718a.937.937 0 101.058-1.549 5.916 5.916 0 00-3.341-1.044c-2.747 0-5.099 1.944-6.075 4.687H8.438a.938.938 0 000 1.875h1.02c-.034.311-.083.617-.083.938 0 .32.049.626.082.937h-1.02a.938.938 0 000 1.875h1.426c.976 2.743 3.328 4.688 6.075 4.688 1.184 0 2.34-.362 3.34-1.045a.938.938 0 10-1.057-1.548z" fill="url(#paint1_linear)"/></g><defs><linearGradient id="paint0_linear" x1="0" y1=".18" x2="33.449" y2="4.709" gradientUnits="userSpaceOnUse"><stop stop-color="#A8D061"/><stop offset="1" stop-color="#A8D061"/></linearGradient><linearGradient id="paint1_linear" x1="7.5" y1="7.68" x2="21.173" y2="9.184" gradientUnits="userSpaceOnUse"><stop stop-color="#A8D061"/><stop offset="1" stop-color="#A8D061"/></linearGradient><clipPath id="clip0"><path fill="#fff" transform="translate(0 .18)" d="M0 0h30v30H0z"/></clipPath></defs></svg>