<svg height="512" viewBox="0 0 512.418 512.418" width="512" xmlns="http://www.w3.org/2000/svg"><path d="M372.362 362.52a7.5 7.5 0 00-7.5 7.5v90.601c0 20.29-16.508 36.797-36.798 36.797H111.499c-20.291 0-36.798-16.507-36.798-36.797V51.798C74.701 31.507 91.209 15 111.499 15h216.564c20.29 0 36.798 16.507 36.798 36.798v48.834c0 4.142 3.357 7.5 7.5 7.5s7.5-3.358 7.5-7.5V51.798C379.862 23.236 356.625 0 328.064 0H111.499C82.938 0 59.701 23.236 59.701 51.798v408.823c0 28.561 23.236 51.797 51.798 51.797h216.564c28.562 0 51.798-23.236 51.798-51.797V370.02a7.499 7.499 0 00-7.499-7.5z"/><path d="M342.362 107.878a7.5 7.5 0 007.5-7.5v-48.58c0-12.02-9.778-21.798-21.798-21.798h-24.649c-4.45 0-8.456 2.813-9.969 7.003l-1.212 3.361a12.21 12.21 0 01-11.457 8.049h-68.355a7.5 7.5 0 000 15h68.355c11.42 0 21.695-7.218 25.568-17.962l.163-.451h21.556a6.806 6.806 0 016.798 6.798v48.581a7.499 7.499 0 007.5 7.499zm13.994 14.172c-20.278 0-39.684 6.232-56.116 18.022a7.5 7.5 0 008.744 12.188c13.868-9.95 30.249-15.209 47.372-15.209 44.862 0 81.361 36.499 81.361 81.361 0 30.68-41.911 80.849-81.134 117.569a.324.324 0 01-.454 0c-39.223-36.719-81.134-86.886-81.134-117.569 0-16.136 4.716-31.73 13.637-45.099a7.499 7.499 0 00-2.075-10.401 7.499 7.499 0 00-10.401 2.075c-10.572 15.841-16.16 34.315-16.16 53.425 0 19.565 12.171 44.831 36.176 75.095 18.466 23.283 39.068 43.465 49.706 53.423a15.292 15.292 0 0010.479 4.127c3.77 0 7.541-1.376 10.479-4.126 10.638-9.96 31.242-30.144 49.706-53.424 24.005-30.265 36.176-55.531 36.176-75.095-.001-53.134-43.228-96.362-96.362-96.362z"/><path d="M410.225 218.412c0-29.703-24.166-53.869-53.869-53.869s-53.868 24.166-53.868 53.869 24.165 53.868 53.868 53.868 53.869-24.165 53.869-53.868zm-92.737 0c0-21.432 17.437-38.869 38.868-38.869 21.433 0 38.869 17.437 38.869 38.869s-17.437 38.868-38.869 38.868-38.868-17.436-38.868-38.868zm-45.99 67.193a7.499 7.499 0 00-10.605-.16l-53.115 51.535a8.51 8.51 0 00-2.574 6.226 8.507 8.507 0 002.776 6.135l126.05 114.535a6.804 6.804 0 01-5.966 3.543h-27.311l-111.539-101.35c-3.305-3.006-8.405-2.923-11.607.188l-72.904 70.736v-34.834l56.181-54.51a7.5 7.5 0 10-10.445-10.765l-45.736 44.375V51.798A6.805 6.805 0 01111.501 45h22.556l.163.452c3.873 10.744 14.148 17.962 25.568 17.962h20.673a7.5 7.5 0 000-15h-20.673a12.21 12.21 0 01-11.458-8.049l-1.211-3.36a10.624 10.624 0 00-9.969-7.004h-25.649c-12.02 0-21.798 9.778-21.798 21.798v408.823c0 12.02 9.778 21.798 21.798 21.798h216.564c12.02 0 21.798-9.778 21.798-21.798v-89.724c0-4.142-3.357-7.5-7.5-7.5s-7.5 3.358-7.5 7.5v73.468L223.207 342.91l48.131-46.699a7.5 7.5 0 00.16-10.606zM104.701 460.621v-2.728l78.954-76.606 94.792 86.132H111.499c-3.748-.001-6.798-3.05-6.798-6.798z"/><path d="M240.496 249.502l-67.117 65.121a7.5 7.5 0 1010.445 10.765l67.117-65.121a7.5 7.5 0 10-10.445-10.765zm-69.036-18.357a7.5 7.5 0 007.5-7.5v-36.114c14.304-3.396 24.98-16.269 24.98-31.597 0-17.91-14.57-32.48-32.48-32.48s-32.48 14.57-32.48 32.48c0 15.328 10.676 28.201 24.98 31.597v36.114a7.5 7.5 0 007.5 7.5zm-17.48-75.211c0-9.639 7.842-17.48 17.48-17.48s17.48 7.841 17.48 17.48-7.841 17.48-17.48 17.48-17.48-7.841-17.48-17.48z"/></svg>