<svg height="640" viewBox="0 0 480 480" width="640" xmlns="http://www.w3.org/2000/svg"><path d="M48 440a8 8 0 11-16 0 8 8 0 0116 0zM400 40a8 8 0 11-16 0 8 8 0 0116 0zm24 0a8 8 0 11-16 0 8 8 0 0116 0zm24 0a8 8 0 11-16 0 8 8 0 0116 0zm0 0"/><path d="M456 0H24C10.75.016.016 10.75 0 24v432c.016 13.25 10.75 23.984 24 24h432c13.25-.016 23.984-10.75 24-24V24c-.016-13.25-10.75-23.984-24-24zM24 16h432a8.005 8.005 0 018 8v72H16V24a8.005 8.005 0 018-8zm440 96v288H16V112zm-8 352H24a8.005 8.005 0 01-8-8v-40h448v40a8.005 8.005 0 01-8 8zm0 0"/><path d="M56 80c13.254 0 24-10.746 24-24S69.254 32 56 32 32 42.746 32 56c.016 13.25 10.75 23.984 24 24zm0-32a8 8 0 11-8 8 8.005 8.005 0 018-8zm40 0h16v16H96zm32 0h32v16h-32zm48 0h16v16h-16zm216 384h16v16h-16zm32 0h24v16h-24zM96 376h288c13.25-.016 23.984-10.75 24-24V160c-.016-13.25-10.75-23.984-24-24H96c-13.25.016-23.984 10.75-24 24v192c.016 13.25 10.75 23.984 24 24zm-8-216a8.005 8.005 0 018-8h288a8.005 8.005 0 018 8v192a8.005 8.005 0 01-8 8H96a8.005 8.005 0 01-8-8zm0 0"/><path d="M304 248a39.665 39.665 0 0016-3.39c16.77 7.382 36.41 2.425 47.672-12.028s11.262-34.71 0-49.164-30.902-19.41-47.672-12.027a39.978 39.978 0 00-43.922 7.996 39.978 39.978 0 00-9.129 43.703A39.976 39.976 0 00304 248zm8-40a23.861 23.861 0 018-17.758 23.711 23.711 0 010 35.516A23.861 23.861 0 01312 208zm48 0c-.016 13.25-10.75 23.984-24 24l-.188-.02c10.918-14.12 10.918-33.84 0-47.96L336 184c13.25.016 23.984 10.75 24 24zm-56-24l.188.02c-10.918 14.12-10.918 33.84 0 47.96L304 232c-13.254 0-24-10.746-24-24s10.746-24 24-24zm-184 64h48c8.832-.012 15.988-7.168 16-16v-48c-.012-8.832-7.168-15.988-16-16h-48c-8.832.012-15.988 7.168-16 16v48c.012 8.832 7.168 15.988 16 16zm48-64l.012 48H120v-16h24v-16h-24v-16zm-64 80h16v16h-16zm32 0h208v16H136zm224 0h16v16h-16zm-144 32h16v16h-16zm32 0h48v16h-48zm-32 32h16v16h-16zm32 0h48v16h-48zm112-32h-32c-8.832.012-15.988 7.168-16 16v16c.012 8.832 7.168 15.988 16 16h32c8.832-.012 15.988-7.168 16-16v-16c-.012-8.832-7.168-15.988-16-16zm-32 32v-16h32l.012 16zm-224 0h16v16h-16zm32 0h32v16h-32zm0 0"/></svg>