<svg width="18" height="21" fill="none" xmlns="http://www.w3.org/2000/svg"><g clip-path="url(#clip0)"><path d="M17.954 7.708c-.115-.407-.433-.696-.81-.735l-5.109-.526-2.02-5.367c-.15-.394-.489-.648-.866-.648s-.716.254-.865.649l-2.02 5.366-5.11.526c-.376.04-.693.328-.81.735-.116.407-.009.853.275 1.134l3.862 3.845-1.138 5.693c-.084.419.06.852.366 1.103a.866.866 0 00.55.203.855.855 0 00.483-.152l4.407-2.99 4.406 2.99c.323.22.729.2 1.034-.051.306-.252.45-.685.366-1.103l-1.139-5.693 3.863-3.844c.284-.282.392-.728.276-1.135z" fill="url(#paint0_linear)"/></g><defs><linearGradient id="paint0_linear" x1="2.651" y1="1.65" x2="17.65" y2="18.449" gradientUnits="userSpaceOnUse"><stop stop-color="#DFDFDF"/><stop offset="1" stop-color="#868686"/></linearGradient><clipPath id="clip0"><path fill="#fff" transform="translate(.298)" d="M0 0h17.703v20.092H0z"/></clipPath></defs></svg>