<svg width="955" height="419" fill="none" xmlns="http://www.w3.org/2000/svg"><path d="M251.47 259.933h46.087v65.082H251.47V413h-80.723v-87.985H3.994L.363 274.179 169.909 6.312h81.561v253.621zm-170.664 0h89.941V116.364l-5.307 9.217-84.634 134.352zm534.057-15.083c0 56.236-11.638 99.251-34.914 129.045-23.277 29.794-57.354 44.691-102.231 44.691-44.319 0-78.209-14.617-101.672-43.853-23.463-29.235-35.473-71.133-36.032-125.693v-74.857c0-56.795 11.731-99.903 35.194-129.325C398.857 15.437 432.841.726 477.159.726c44.319 0 78.21 14.617 101.672 43.853 23.463 29.049 35.474 70.854 36.032 125.414v74.857zm-80.723-82.119c0-33.705-4.655-58.192-13.966-73.461-9.124-15.456-23.462-23.184-43.015-23.184-18.993 0-33.052 7.356-42.177 22.067-8.938 14.524-13.686 37.335-14.245 68.433v98.878c0 33.146 4.469 57.819 13.407 74.02 9.125 16.014 23.649 24.021 43.574 24.021 19.738 0 33.984-7.728 42.736-23.183 8.752-15.456 13.314-39.105 13.686-70.947v-96.644zm374.287 97.202h46.088v65.082h-46.088V413h-80.723v-87.985H660.951l-3.631-50.836L826.866 6.312h81.561v253.621zm-170.663 0h89.94V116.364l-5.307 9.217-84.633 134.352z" fill="#161616" fill-opacity=".3"/></svg>