<svg width="18" height="19" fill="none" xmlns="http://www.w3.org/2000/svg"><path d="M12.695.78H5.597A5.237 5.237 0 00.366 6.012v7.098a5.237 5.237 0 005.231 5.231h7.098a5.237 5.237 0 005.232-5.231V6.012A5.237 5.237 0 0012.695.78zm3.465 12.33a3.465 3.465 0 01-3.465 3.465H5.597a3.465 3.465 0 01-3.465-3.465V6.012a3.465 3.465 0 013.465-3.465h7.098a3.465 3.465 0 013.465 3.465v7.098z" fill="url(#paint0_linear)"/><path d="M9.146 5.02a4.547 4.547 0 00-4.542 4.54 4.547 4.547 0 004.542 4.542 4.547 4.547 0 004.542-4.542 4.547 4.547 0 00-4.542-4.54zm0 7.317a2.775 2.775 0 110-5.55 2.775 2.775 0 010 5.55z" fill="url(#paint1_linear)"/><path d="M13.697 6.142a1.088 1.088 0 100-2.176 1.088 1.088 0 000 2.176z" fill="url(#paint2_linear)"/><defs><linearGradient id="paint0_linear" x1=".366" y1=".78" x2="19.946" y2="3.432" gradientUnits="userSpaceOnUse"><stop stop-color="#DB7515"/><stop offset="1" stop-color="#FCCD6D"/></linearGradient><linearGradient id="paint1_linear" x1="4.604" y1="5.02" x2="14.733" y2="6.391" gradientUnits="userSpaceOnUse"><stop stop-color="#DB7515"/><stop offset="1" stop-color="#FCCD6D"/></linearGradient><linearGradient id="paint2_linear" x1="12.609" y1="3.966" x2="15.036" y2="4.294" gradientUnits="userSpaceOnUse"><stop stop-color="#DB7515"/><stop offset="1" stop-color="#FCCD6D"/></linearGradient></defs></svg>