<svg width="18" height="19" fill="none" xmlns="http://www.w3.org/2000/svg"><path d="M17.63 18.342h.004V11.9c0-3.15-.678-5.578-4.361-5.578-1.771 0-2.96.972-3.445 1.893h-.05V6.617H6.284v11.724H9.92v-5.805c0-1.528.29-3.006 2.183-3.006 1.865 0 1.893 1.744 1.893 3.104v5.708h3.633z" fill="url(#paint0_linear)"/><path d="M.363 6.618h3.64v11.724H.364V6.618z" fill="url(#paint1_linear)"/><path d="M2.182.78A2.11 2.11 0 00.073 2.89c0 1.164.945 2.129 2.109 2.129 1.164 0 2.109-.965 2.109-2.129A2.11 2.11 0 002.182.78z" fill="url(#paint2_linear)"/><defs><linearGradient id="paint0_linear" x1="6.285" y1="6.323" x2="18.964" y2="7.944" gradientUnits="userSpaceOnUse"><stop stop-color="#DB7515"/><stop offset="1" stop-color="#FCCD6D"/></linearGradient><linearGradient id="paint1_linear" x1=".363" y1="6.618" x2="4.489" y2="6.792" gradientUnits="userSpaceOnUse"><stop stop-color="#DB7515"/><stop offset="1" stop-color="#FCCD6D"/></linearGradient><linearGradient id="paint2_linear" x1=".073" y1=".78" x2="4.776" y2="1.414" gradientUnits="userSpaceOnUse"><stop stop-color="#DB7515"/><stop offset="1" stop-color="#FCCD6D"/></linearGradient></defs></svg>