<svg xmlns="http://www.w3.org/2000/svg" version="1.0" width="1005.852" height="293.396" viewBox="-1.865 -1.865 213.012 62.166"><path d="M211.202 60.301H-1.923V-1.865h213.125v62.166z"/><path d="M73.64 10.019c-5.014 0-7.875 2.029-7.875 5.594 0 2.21.925 3.81 3.562 4.593l4.813 1.407c.642.19 1.156.546 1.156 1.187 0 .761-.657 1.406-1.656 1.406-.641 0-1.05-.23-1.313-.562-.26-.356-.375-.838-.375-1.313h-6.5c0 4.468 3.803 5.75 7.938 5.75 4.847 0 8.25-1.762 8.25-5.968 0-2.068-.933-3.598-3.094-4.5-1.735-.737-4.13-1.214-5.437-1.594-.714-.214-1.125-.476-1.125-1.094 0-.524.468-1 1.562-1 .879 0 1.476.368 1.5 1.438h6.094c0-3.993-3.223-5.344-7.5-5.344zm93.687.125v38.094h2.157V10.144h-2.157zm21.72.125c-1.268 0-2.313 1.026-2.313 2.281 0 1.268 1.045 2.281 2.312 2.281a2.276 2.276 0 002.281-2.281 2.284 2.284 0 00-2.28-2.281zm-170.72.219l3.72 17.156h7.374l1.594-11.125h.031l1.594 11.125h7.375l3.719-17.156H37.64l-1.438 10.78h-.062l-1.594-10.78h-7.031l-1.594 10.78h-.031l-1.469-10.78h-6.094zm29.563 0v17.156h13.25v-4.469h-6.75v-1.937h6.031v-4.47H54.39v-1.812h6.531v-4.468H47.89zm37.625 0v4.593h4.25v12.563h6.781V15.08h4.25v-4.593H85.515zm19.875 0v17.156h13.281v-4.469h-6.75v-1.937h6.031v-4.47h-6.03v-1.812h6.53v-4.468H105.39zm18.312 0v17.156h6.657v-6.125h.78c1.093 0 1.515.332 1.657 1.187.238 1.474.44 3.654.844 4.938h6.656c-.784-2.591-.714-5.028-1.094-6.5-.332-1.308-1.243-2.045-2.906-2.188v-.031c2.566-.619 3.406-2.121 3.406-4.094 0-3.232-2.16-4.343-5.843-4.343h-10.157zm21.344 0v17.156h5.5V17.175h.063l3.625 10.469h8.156V10.488h-5.531v10.375h-.032l-3.625-10.375h-8.156zm37.656 0v37.687h2.157V10.488h-2.157zm6.344.062c1.11 0 1.906.89 1.906 2 0 1.123-.796 1.969-1.906 1.969-1.116 0-1.937-.846-1.937-1.969 0-1.11.82-2 1.937-2zm-.844.719v2.562h.313v-1.187h.562l.72 1.187h.374l-.75-1.187c.453-.013.781-.186.781-.688 0-.421-.23-.687-.906-.687h-1.094zm.313.219h.719c.313 0 .625.04.625.437 0 .52-.514.469-.875.469h-.47v-.906zm-58.156 2.906h.625c1.33 0 2.187.241 2.187 1.5 0 1.284-.942 1.75-2.25 1.75h-.562v-3.25zm.687 16.156c-5.917 0-8.875 3.685-8.875 9.031 0 5.348 2.958 9.032 8.875 9.032 5.918 0 8.844-3.684 8.844-9.032 0-5.346-2.926-9.031-8.844-9.031zm-65.844.438v11.406c0 4.135 2.975 6.219 8.157 6.219 5.18 0 8.156-2.084 8.156-6.22V30.989h-6.813v11.125c0 1.353-.63 1.875-1.343 1.875s-1.344-.522-1.344-1.875V30.988h-6.813zm21.938 0v17.156h5.531V37.706h.031l3.625 10.438h8.157V30.988h-5.5v10.406h-.063l-3.625-10.406H87.14zm23.094 0v17.156h6.812V30.988h-6.812zm34.812 0v17.156h5.5V37.706h.063l3.625 10.438h8.156V30.988h-5.531v10.406h-.032l-3.625-10.406h-8.156zm-14 4.03c1.094 0 1.813.69 1.813 4.563 0 3.969-.768 4.563-1.813 4.563s-1.844-.594-1.844-4.563c0-3.872.752-4.562 1.844-4.562z" fill="#ffde38"/></svg>